<?xml version="1.0" encoding="utf-8"?>
<!-- Generator: Adobe Illustrator 16.0.0, SVG Export Plug-In . SVG Version: 6.00 Build 0)  -->
<!DOCTYPE svg PUBLIC "-//W3C//DTD SVG 1.1//EN" "http://www.w3.org/Graphics/SVG/1.1/DTD/svg11.dtd">
<svg version="1.1" xmlns="http://www.w3.org/2000/svg" xmlns:xlink="http://www.w3.org/1999/xlink" x="0px" y="0px" width="33px"
	 height="56.1px" viewBox="0 0 33 56.1" enable-background="new 0 0 33 56.1" xml:space="preserve">
<g id="Layer_1">
</g>
<g id="Layer_2">
	<g>
		<rect x="9.899" y="52.8" width="13.2" height="3.3"/>
		<rect x="4.949" y="13.2" width="24.75" height="3.3"/>
		<rect x="13.199" y="16.5" width="6.601" height="36.3"/>
		<rect x="23.1" y="3.3" width="6.6" height="9.9"/>
		<rect x="19.8" width="13.2" height="3.3"/>
		<rect width="13.199" height="3.3"/>
		<rect x="4.949" y="3.3" width="3.301" height="9.9"/>
	</g>
	<path d="M23.1,11.55c0,0.911-0.738,1.65-1.65,1.65h0.027H23.1v-1.623"/>
	<path d="M13.199,51.15c0,0.911-0.738,1.65-1.649,1.65h0.026h1.623v-1.623"/>
	<path d="M3.3,3.3c0.911,0,1.649,0.739,1.649,1.65V4.923V3.3H3.326"/>
	<path d="M21.449,3.3c0.912,0,1.65,0.739,1.65,1.65V4.923V3.3h-1.623"/>
	<path d="M11.55,16.5c0.911,0,1.649,0.739,1.649,1.65v-0.027V16.5h-1.623"/>
	<path d="M19.8,18.15c0-0.911,0.739-1.65,1.649-1.65h-0.026H19.8v1.623"/>
	<path d="M8.25,4.95c0-0.912,0.738-1.65,1.649-1.65H9.873H8.25v1.623"/>
	<path d="M29.699,4.95c0-0.912,0.739-1.65,1.65-1.65h-0.027h-1.623v1.623"/>
	<path d="M9.899,13.2c-0.911,0-1.649-0.739-1.649-1.65v0.027V13.2h1.623"/>
	<path d="M21.436,52.8c-0.911,0-1.65-0.739-1.65-1.65v0.027V52.8h1.623"/>
</g>
</svg>
