<?xml version="1.0" encoding="utf-8"?>
<!-- Generator: Adobe Illustrator 16.0.0, SVG Export Plug-In . SVG Version: 6.00 Build 0)  -->
<!DOCTYPE svg PUBLIC "-//W3C//DTD SVG 1.1//EN" "http://www.w3.org/Graphics/SVG/1.1/DTD/svg11.dtd">
<svg version="1.1" xmlns="http://www.w3.org/2000/svg" xmlns:xlink="http://www.w3.org/1999/xlink" x="0px" y="0px" width="26.4px"
	 height="56.1px" viewBox="0 0 26.4 56.1" enable-background="new 0 0 26.4 56.1" xml:space="preserve">
<g id="Layer_1">
</g>
<g id="Layer_2">
	<g>
		<rect x="3.3" y="3.3" width="6.601" height="49.5"/>
		<rect x="16.5" y="3.3" width="6.601" height="9.9"/>
		<rect x="13.2" y="13.2" width="13.2" height="3.3"/>
		<rect width="26.4" height="3.3"/>
		<rect y="52.8" width="26.4" height="3.3"/>
		<rect x="23.101" y="49.5" width="3.3" height="3.3"/>
		<rect x="9.9" y="26.4" width="9.899" height="6.6"/>
		<rect x="19.8" y="23.1" width="3.301" height="13.2"/>
	</g>
	<path d="M3.3,51.15c0,0.911-0.738,1.65-1.649,1.65h0.026H3.3v-1.623"/>
	<path d="M23.101,51.15c0,0.911-0.739,1.65-1.65,1.65h0.027h1.623v-1.623"/>
	<path d="M19.8,24.75c0,0.911-0.738,1.65-1.649,1.65h0.026H19.8v-1.623"/>
	<path d="M16.5,11.55c0,0.911-0.738,1.65-1.649,1.65h0.026H16.5v-1.623"/>
	<path d="M14.851,3.3c0.911,0,1.65,0.739,1.65,1.65V4.923V3.3h-1.623"/>
	<path d="M1.65,3.3C2.562,3.3,3.3,4.039,3.3,4.95V4.923V3.3H1.677"/>
	<path d="M18.15,33c0.911,0,1.65,0.739,1.65,1.65v-0.027V33h-1.623"/>
	<path d="M9.9,4.95c0-0.912,0.739-1.65,1.649-1.65h-0.026H9.9v1.623"/>
	<path d="M23.101,4.95c0-0.912,0.738-1.65,1.649-1.65h-0.026h-1.623v1.623"/>
	<path d="M9.9,34.65C9.9,33.739,10.64,33,11.55,33h-0.026H9.9v1.623"/>
	<path d="M11.55,52.8c-0.91,0-1.649-0.739-1.649-1.65v0.027V52.8h1.623"/>
	<path d="M11.55,26.4c-0.91,0-1.649-0.739-1.649-1.65v0.027V26.4h1.623"/>
	<path d="M24.75,13.2c-0.911,0-1.649-0.739-1.649-1.65v0.027V13.2h1.623"/>
</g>
</svg>
