<?xml version="1.0" encoding="utf-8"?>
<!-- Generator: Adobe Illustrator 16.0.0, SVG Export Plug-In . SVG Version: 6.00 Build 0)  -->
<!DOCTYPE svg PUBLIC "-//W3C//DTD SVG 1.1//EN" "http://www.w3.org/Graphics/SVG/1.1/DTD/svg11.dtd">
<svg version="1.1" xmlns="http://www.w3.org/2000/svg" xmlns:xlink="http://www.w3.org/1999/xlink" x="0px" y="0px" width="39.6px"
	 height="56.1px" viewBox="0 0 39.6 56.1" enable-background="new 0 0 39.6 56.1" xml:space="preserve">
<g id="Layer_1">
</g>
<g id="Layer_2">
	<g>
		<rect x="9.9" y="52.8" width="19.8" height="3.3"/>
		<rect width="19.8" height="3.3"/>
		<polygon points="6.6,3.3 13.2,3.3 23.1,52.8 16.5,52.8 		"/>
		<polygon points="33,3.3 23.1,52.8 19.8,52.8 29.7,3.3 		"/>
		<rect x="23.1" width="16.5" height="3.3"/>
	</g>
	<path d="M25.114,52.8c-0.911,0-1.649-0.739-1.649-1.65v0.027V52.8h1.622"/>
	<rect x="16.19" y="51.15" width="1.65" height="1.65"/>
	<rect x="21.814" y="51.15" width="1.65" height="1.65"/>
	<rect x="29.391" y="3.3" width="1.65" height="1.65"/>
	<rect x="11.9" y="3.3" width="1.65" height="1.65"/>
	<path d="M16.191,51.15c0,0.911-0.739,1.65-1.65,1.65h0.027h1.623v-1.623"/>
	<path d="M5.301,3.3c0.91,0,1.649,0.739,1.649,1.65V4.923V3.3H5.328"/>
	<path d="M27.74,3.3c0.912,0,1.65,0.739,1.65,1.65V4.923V3.3h-1.623"/>
	<path d="M13.551,4.95c0-0.912,0.738-1.65,1.649-1.65h-0.026h-1.623v1.623"/>
	<path d="M32.704,4.95c0-0.912,0.739-1.65,1.65-1.65h-0.027h-1.623v1.623"/>
</g>
</svg>
