<?xml version="1.0" encoding="utf-8"?>
<!-- Generator: Adobe Illustrator 16.0.0, SVG Export Plug-In . SVG Version: 6.00 Build 0)  -->
<!DOCTYPE svg PUBLIC "-//W3C//DTD SVG 1.1//EN" "http://www.w3.org/Graphics/SVG/1.1/DTD/svg11.dtd">
<svg version="1.1" xmlns="http://www.w3.org/2000/svg" xmlns:xlink="http://www.w3.org/1999/xlink" x="0px" y="0px" width="29.7px"
	 height="56.1px" viewBox="0 0 29.7 56.1" enable-background="new 0 0 29.7 56.1" xml:space="preserve">
<g id="Layer_1">
</g>
<g id="Layer_2">
	<g>
		<rect x="3.3" y="3.3" width="6.6" height="49.5"/>
		<rect x="16.5" y="3.3" width="6.6" height="9.9"/>
		<rect x="13.2" y="13.2" width="13.199" height="3.3"/>
		<rect width="29.7" height="3.3"/>
		<rect y="52.8" width="29.7" height="3.3"/>
		<rect x="26.399" y="49.5" width="3.301" height="3.3"/>
	</g>
	<path d="M16.5,11.55c0,0.911-0.739,1.65-1.65,1.65h0.027H16.5v-1.623"/>
	<path d="M3.3,51.15c0,0.911-0.738,1.65-1.65,1.65h0.027H3.3v-1.623"/>
	<path d="M26.399,51.15c0,0.911-0.738,1.65-1.649,1.65h0.026h1.623v-1.623"/>
	<path d="M9.899,4.95c0-0.912,0.739-1.65,1.65-1.65h-0.027H9.899v1.623"/>
	<path d="M23.1,4.95c0-0.912,0.739-1.65,1.65-1.65h-0.027H23.1v1.623"/>
	<path d="M24.75,13.2c-0.911,0-1.65-0.739-1.65-1.65v0.027V13.2h1.623"/>
	<path d="M11.55,52.8c-0.911,0-1.65-0.739-1.65-1.65v0.027V52.8h1.623"/>
	<path d="M14.85,3.3c0.911,0,1.65,0.739,1.65,1.65V4.923V3.3h-1.623"/>
	<path d="M1.649,3.3c0.912,0,1.65,0.739,1.65,1.65V4.923V3.3H1.677"/>
</g>
</svg>
