<?xml version="1.0" encoding="utf-8"?>
<!-- Generator: Adobe Illustrator 16.0.0, SVG Export Plug-In . SVG Version: 6.00 Build 0)  -->
<!DOCTYPE svg PUBLIC "-//W3C//DTD SVG 1.1//EN" "http://www.w3.org/Graphics/SVG/1.1/DTD/svg11.dtd">
<svg version="1.1" id="Layer_1" xmlns="http://www.w3.org/2000/svg" xmlns:xlink="http://www.w3.org/1999/xlink" x="0px" y="0px"
	 width="840.326px" height="147.626px" viewBox="0 0 840.326 147.626" enable-background="new 0 0 840.326 147.626"
	 xml:space="preserve">
<path fill="none" d="M930.229,682.44c-340.734,0-681.469,0-1022.204,0c0-233.425,0-466.85,0-700.276c340.734,0,681.469,0,1022.204,0
	C930.229,215.589,930.229,449.015,930.229,682.44z M840.081,138.689c-279.649,0-558.974,0-838.299,0.006
	c-0.45,0-0.899,0.096-1.316,0.144c-0.579,2.002-0.62,6.122-0.068,8.652c1.292,0.242,2.667,0.131,4.028,0.131
	c277.122,0.005,554.244,0.005,831.366,0.005c0.922,0,1.845,0.029,2.765-0.016c0.524-0.026,1.043-0.176,1.705-0.295
	C840.264,144.477,840.462,141.744,840.081,138.689z M840.111,522.142c-1.372-0.398-2.664-0.229-3.929-0.229
	c-277.304-0.009-554.607-0.009-831.91-0.008c-0.83,0-1.661-0.027-2.489,0.017c-0.517,0.028-1.028,0.165-1.647,0.271
	c-0.22,2.451-0.104,4.746-0.092,7.035c0.003,0.503,0.251,1.004,0.417,1.623c1.31,0,2.503,0.001,3.696,0.001
	c277.303,0,554.606-0.001,831.91-0.001c0.83,0,1.661,0.033,2.488-0.017c0.521-0.031,1.033-0.188,1.695-0.317
	C840.279,527.678,840.456,524.95,840.111,522.142z M662.373,109.347c-0.208-0.882-0.974-1.438-1.568-2.088
	c-15.422-16.853-32.401-31.955-50.964-45.273c-23.104-16.577-47.926-29.965-74.486-40.136c-18.54-7.099-37.553-12.505-57.067-16.15
	c-6.702-1.252-13.417-2.417-20.198-3.138c-6.686-0.712-13.375-1.407-20.074-1.978c-3.942-0.336-7.906-0.584-11.86-0.574
	c-7.366,0.017-14.729-0.151-22.103,0.237c-7.548,0.397-15.073,0.947-22.591,1.71c-9.357,0.95-18.636,2.41-27.855,4.216
	c-13.296,2.605-26.383,6.04-39.262,10.268c-27.107,8.9-52.632,21.105-76.581,36.602c-21.215,13.728-40.575,29.718-58.135,47.885
	c-2.369,2.451-4.663,4.977-6.974,7.483c-0.284,0.308-0.724,0.626-0.329,1.312c0.361,0.025,0.799,0.083,1.238,0.083
	c3.502,0.008,7.006-0.043,10.507,0.03c1.319,0.028,2.27-0.422,3.139-1.368c1.746-1.899,3.482-3.819,5.362-5.581
	c5.042-4.725,10.087-9.448,15.256-14.032c11.396-10.109,23.573-19.201,36.409-27.4c22.303-14.245,45.963-25.69,71.019-34.227
	c13.352-4.549,26.912-8.329,40.799-10.877c7.339-1.347,14.707-2.475,22.115-3.399c7.503-0.936,15.03-1.601,22.57-1.936
	c8.188-0.364,16.382-0.646,24.592-0.333c8.197,0.312,16.388,0.705,24.545,1.525c7.512,0.756,14.989,1.815,22.446,3.043
	c13.479,2.22,26.701,5.47,39.71,9.588c23.09,7.31,45.124,17.031,66.071,29.203c15.732,9.143,30.613,19.494,44.497,31.269
	c8.579,7.276,16.879,14.852,24.606,23.034c0.959,1.016,1.921,1.535,3.353,1.497c3.408-0.091,6.82-0.02,10.23-0.041
	C661.304,109.798,661.901,109.992,662.373,109.347z M653.422,560.9c-0.672-0.254-0.918-0.428-1.165-0.429
	c-4.056-0.024-8.112-0.003-12.167-0.048c-1.137-0.013-1.867,0.578-2.633,1.282c-3.661,3.368-7.299,6.765-11.038,10.044
	c-9.155,8.028-18.763,15.476-28.839,22.319c-15.127,10.274-31.002,19.224-47.62,26.836c-17.117,7.841-34.783,14.167-52.999,18.958
	c-11.239,2.956-22.636,5.096-34.139,6.699c-7.21,1.005-14.435,1.874-21.709,2.27c-5.059,0.274-10.112,0.688-15.175,0.841
	c-11.061,0.334-22.105-0.046-33.145-0.851c-8.922-0.65-17.792-1.692-26.626-3.048c-14.681-2.254-29.098-5.653-43.266-10.124
	c-20.531-6.479-40.25-14.86-59.144-25.175c-24.4-13.32-46.684-29.548-66.744-48.805c-0.853-0.818-1.702-1.274-2.916-1.256
	c-3.779,0.058-7.559,0.015-11.338,0.031c-0.432,0.001-0.862,0.127-1.357,0.204c1.436,2.446,9.61,10.378,19.434,18.892
	c27.182,23.557,57.391,42.213,90.644,55.927c36.748,15.155,75.02,23.387,114.72,24.746c33.188,1.137,65.842-2.712,97.896-11.475
	c34.049-9.309,65.805-23.682,95.255-43.138C618.867,592.71,636.805,577.913,653.422,560.9z M0.255,129.859
	c279.726,0,559.208,0,838.69-0.008c0.349,0,0.697-0.128,1.125-0.212c0.312-1.69,0.392-3.291-0.062-4.931
	c-1.313-0.501-2.615-0.268-3.881-0.268c-277.278-0.013-554.556-0.012-831.833-0.012c-0.83,0-1.662-0.034-2.488,0.018
	c-0.518,0.033-1.028,0.195-1.562,0.303C-0.096,126.434-0.069,127.96,0.255,129.859z M0.068,544.798
	c0.734,0.128,1.087,0.243,1.44,0.243c279.24-0.004,558.48-0.016,837.72-0.038c0.256,0,0.513-0.166,0.981-0.327
	c0.037-1.562,0.307-3.164-0.178-4.869c-0.593-0.046-1.04-0.111-1.487-0.111c-279.238,0.021-558.477,0.046-837.715,0.08
	c-0.156,0-0.312,0.157-0.622,0.323c-0.051,0.338-0.167,0.777-0.173,1.219C0.018,542.412,0.052,543.505,0.068,544.798z
	 M4.196,266.094c-0.755,0.677-1.233,1.069-1.669,1.503c-2.353,2.34-4.694,4.691-7.04,7.037
	c-6.712,6.712-13.421,13.428-20.146,20.128c-0.544,0.542-0.997,1.275-2.089,1.476c-0.03-1.17-0.077-2.16-0.078-3.149
	c-0.005-12.626,0.004-25.252-0.017-37.878c-0.001-0.982,0.27-2.028-0.471-3.112c-2.655-0.093-5.395-0.09-8.066-0.001
	c-0.736,1.165-0.468,2.299-0.47,3.376c-0.019,15.576-0.013,31.151-0.013,46.726c0,0.737-0.038,1.477,0.005,2.211
	c0.063,1.089-0.313,1.925-1.109,2.691c-2.124,2.046-4.177,4.164-6.272,6.239c-0.301,0.298-0.592,0.738-1.259,0.421
	c-0.301-1.003-0.169-2.107-0.169-3.191c-0.008-18.34-0.002-36.68-0.016-55.021c0-1.088,0.212-2.212-0.407-3.477
	c-1.515,0.12-3.131-0.354-4.888,0.351c0,22.626,0,45.18,0,67.658c-5.854,5.868-11.574,11.603-17.418,17.462
	c0.73,0.774,1.333,1.448,1.972,2.088c4.558,4.566,9.075,9.174,13.714,13.656c1.316,1.272,1.773,2.589,1.758,4.369
	c-0.07,8.755-0.031,17.511-0.031,26.266c0,11.981-0.005,23.962,0.009,35.943c0.001,0.989-0.169,2.011,0.29,3.174
	c1.615-0.003,3.209,0.328,4.937-0.221c0.026-1.211,0.071-2.307,0.071-3.402c0.005-16.22,0.002-32.44,0.005-48.661
	c0-2.765,0.011-5.529,0.042-8.294c0.005-0.419-0.116-0.94,0.599-1.26c0.213,0.166,0.507,0.349,0.747,0.587
	c2.09,2.08,4.135,4.208,6.272,6.238c0.89,0.846,1.193,1.779,1.16,2.95c-0.046,1.657-0.011,3.317-0.01,4.977
	c0,14.562-0.006,29.123,0.012,43.684c0.001,1.084-0.24,2.213,0.33,3.235c2.843,0.421,6.615,0.345,8.584-0.208
	c0.034-0.851,0.102-1.757,0.103-2.662c0.009-6.82,0.005-13.641,0.005-20.46c0-6.268-0.007-12.534,0.014-18.802
	c0.002-0.587-0.281-1.299,0.548-1.795c0.514,0.465,1.064,0.925,1.571,1.428c2.159,2.143,4.305,4.297,6.456,6.447
	c6.908,6.907,13.811,13.82,20.736,20.711c0.474,0.472,0.812,1.272,1.724,1.109C4.525,406.455,4.553,269.125,4.196,266.094z
	 M864.954,296.042c-0.198,0.089-0.396,0.179-0.595,0.269c-2.016-2.001-4.034-4-6.046-6.004c-2.023-2.017-4.041-4.041-6.062-6.062
	c-1.955-1.956-3.91-3.912-5.865-5.867c-2.021-2.021-4.021-4.062-6.067-6.056c-2.028-1.974-3.901-4.118-6.182-5.995
	c-0.19,0.439-0.389,0.682-0.389,0.925c-0.001,47.007,0.013,94.014,0.039,141.021c0,0.14,0.203,0.279,0.4,0.535
	c0.476-0.416,0.969-0.802,1.41-1.24c2.876-2.859,5.74-5.731,8.607-8.599c6.192-6.192,12.381-12.388,18.582-18.569
	c0.549-0.547,1.014-1.259,2.089-1.523c0.037,1.189,0.094,2.174,0.095,3.158c0.006,12.628-0.002,25.256,0.016,37.885
	c0.002,0.982-0.222,2.014,0.255,2.921c2.902,0.465,6.695,0.392,8.68-0.206c0-0.846,0-1.756,0-2.665c0-5.254,0-10.509,0-15.763
	c0-10.969,0.021-21.938-0.023-32.906c-0.006-1.391,0.321-2.453,1.363-3.427c2.085-1.951,4.056-4.025,6.092-6.03
	c0.296-0.291,0.562-0.766,1.319-0.463c0.204,1.641,0.062,3.371,0.089,5.091c0.025,1.659,0.006,3.318,0.006,4.978
	c0,1.751,0,3.503,0,5.254c0,1.659,0,3.318,0,4.978c0,1.751,0,3.503,0,5.254c0,1.659,0,3.318,0,4.978c0,1.751,0,3.503,0,5.254
	c0,1.752,0,3.503,0,5.254c0,1.659,0,3.318,0,4.978c0,1.752,0,3.503,0,5.254c0,1.659-0.025,3.319,0.007,4.978
	c0.033,1.729-0.154,3.473,0.159,5.252c1.759,0.347,3.354,0.335,5.121,0.013c0.033-1.229,0.088-2.317,0.088-3.406
	c0.006-20.647,0.025-41.295-0.032-61.942c-0.006-1.808,0.523-3.089,1.812-4.343c4.756-4.627,9.415-9.355,14.099-14.058
	c0.492-0.494,0.905-1.067,1.395-1.65c-0.759-0.791-1.383-1.463-2.03-2.111c-4.364-4.37-8.746-8.722-13.096-13.106
	c-2.539-2.56-2.126-1.502-2.136-5.275c-0.023-9.586-0.008-19.173-0.008-28.759c0-10.969,0.005-21.938-0.009-32.907
	c-0.001-0.992,0.161-2.013-0.254-3.089c-1.652-0.295-3.244-0.314-5.01,0.04c-0.038,1.114-0.103,2.109-0.103,3.105
	c-0.006,16.592-0.004,33.183-0.005,49.775c0,2.581,0.003,5.162-0.015,7.743c-0.003,0.422,0.116,0.945-0.649,1.16
	c-2.228-2.218-4.468-4.527-6.803-6.736c-1.024-0.969-1.422-2.004-1.404-3.41c0.066-5.438,0.026-10.877,0.026-16.315
	c0-10.785,0.004-21.569-0.007-32.354c-0.001-0.987,0.141-2.003-0.33-3.226c-2.817,0.165-5.615-0.293-8.562,0.303
	c-0.093,3.718-0.035,7.3-0.046,10.88c-0.01,3.687-0.002,7.374-0.002,11.061c0,3.595,0.003,7.19-0.001,10.785
	C864.972,288.719,864.961,292.38,864.954,296.042z M460.863,589.066c1.104-1.186,1.696-1.858,2.328-2.492
	c4.361-4.372,8.731-8.735,13.099-13.102c4.693-4.692,9.389-9.382,14.068-14.088c0.351-0.352,0.976-0.635,0.582-1.51
	c-1.025,0-2.124,0-3.224,0c-45.164,0-90.328,0-135.493,0c-0.737,0-1.475-0.013-2.211,0.01c-0.429,0.014-0.946-0.099-1.095,0.521
	c0.052,0.085,0.087,0.177,0.149,0.24c9.63,9.661,19.262,19.319,28.891,28.98c0.194,0.194,0.361,0.416,0.533,0.631
	c0.058,0.07,0.119,0.157,0.127,0.241c0.007,0.08-0.055,0.165-0.158,0.439c-0.332,0.035-0.756,0.115-1.182,0.119
	c-1.659,0.016-3.318,0.009-4.977,0.009c-11.522,0.001-23.043-0.006-34.565,0.012c-0.983,0.001-2.016-0.214-3.19,0.425
	c0.104,2.747-0.246,5.546,0.229,8.52c1.242,0.035,2.333,0.091,3.424,0.092c15.485,0.006,30.971,0.004,46.455,0.004
	c0.737,0,1.478,0.038,2.212-0.006c1.086-0.063,1.932,0.295,2.701,1.091c2.113,2.188,4.293,4.311,6.434,6.472
	c0.234,0.236,0.382,0.559,0.673,0.995c-1.139,0.433-2.151,0.285-3.135,0.285c-18.25,0.009-36.5,0.007-54.75,0.007
	c-0.829,0-1.661-0.024-2.488,0.02c-0.521,0.028-1.035,0.164-1.649,0.268c-0.124,1.693-0.253,3.212,0.087,4.771
	c1.204,0.362,2.311,0.229,3.397,0.229c20.646,0.009,41.293,0.029,61.939-0.034c1.819-0.006,3.088,0.54,4.336,1.819
	c4.634,4.75,9.359,9.41,14.063,14.091c0.494,0.491,1.072,0.897,1.725,1.437c5.86-5.857,11.587-11.581,17.314-17.306
	c1.308,0,2.503,0,3.697,0c11.706,0,23.412-0.001,35.117-0.001c8.665,0,17.329,0.008,25.993-0.01
	c0.986-0.002,2.011,0.184,3.175-0.317c-0.098-1.608,0.416-3.217-0.391-4.965c-1.108,0-2.207,0-3.306,0
	c-16.314,0-32.629,0.001-48.943-0.001c-2.581,0-5.162,0.008-7.742-0.024c-0.505-0.006-1.006-0.178-1.539-0.278
	c0.126-0.329,0.146-0.541,0.261-0.658c2.328-2.363,4.675-4.708,6.998-7.076c0.559-0.568,1.203-0.81,1.979-0.8
	c0.737,0.01,1.475-0.006,2.212-0.006c15.669,0,31.338,0.005,47.008-0.011c1.086-0.001,2.213,0.227,3.243-0.312
	c0.433-2.571,0.379-6.527-0.183-8.727c-7.183-0.004-14.442-0.002-21.702-0.002C476.121,589.065,468.851,589.066,460.863,589.066z
	 M491.694,112.708c-0.966-1.076-1.473-1.693-2.033-2.256c-4.359-4.374-8.729-8.737-13.096-13.104
	c-4.692-4.693-9.391-9.379-14.066-14.089c-0.404-0.408-1.158-0.702-0.768-1.706c0.941-0.013,1.946-0.037,2.951-0.038
	c12.442-0.002,24.886,0.004,37.328-0.012c1.085-0.001,2.211,0.224,3.238-0.3c0.442-2.376,0.411-6.451-0.107-8.656
	c-0.932-0.03-1.926-0.091-2.919-0.091c-14.194-0.006-28.389-0.004-42.583-0.004c-2.12,0-4.24-0.035-6.359,0.012
	c-1.081,0.024-1.923-0.263-2.697-1.073c-2.037-2.131-4.16-4.18-6.233-6.278c-0.292-0.295-0.494-0.681-0.88-1.225
	c1.213-0.391,2.221-0.242,3.197-0.243c18.249-0.011,36.499-0.008,54.748-0.009c0.83,0,1.662,0.035,2.488-0.021
	c0.517-0.035,1.024-0.211,1.549-0.326c0.064-1.672,0.307-3.209-0.215-4.912c-22.569-0.001-45.041,0-67.566,0
	c-0.752-0.727-1.487-1.417-2.2-2.129c-4.631-4.624-9.25-9.259-13.893-13.871c-0.491-0.488-0.862-1.229-1.858-1.161
	c-0.605,0.587-1.271,1.217-1.92,1.865c-4.632,4.623-9.282,9.228-13.87,13.894c-0.978,0.994-1.968,1.597-3.392,1.415
	c-0.635-0.081-1.289-0.013-1.935-0.013c-13.825,0-27.65,0-41.476,0c-6.544,0-13.088-0.006-19.632,0.006
	c-0.896,0.001-1.79,0.09-2.856,0.147c-0.103,1.71-0.2,3.225,0.037,4.804c1.181,0.454,2.291,0.294,3.371,0.294
	c16.406,0.011,32.812,0.007,49.219,0.008c2.673,0,5.346,0.001,8.019,0.016c0.43,0.002,0.938-0.11,1.218,0.667
	c-2.401,2.526-4.958,5.029-7.525,7.519c-0.354,0.343-0.963,0.508-1.479,0.578c-0.725,0.098-1.471,0.034-2.209,0.034
	c-9.493,0-18.986,0-28.479,0c-6.544,0-13.089-0.008-19.633,0.011c-0.802,0.002-1.665-0.223-2.581,0.528
	c-0.02,2.65-0.252,5.448,0.18,8.415c1.155,0.04,2.153,0.103,3.15,0.103c12.351,0.006,24.701,0.004,37.052,0.005
	c0.83,0,1.66-0.009,2.488,0.017c0.438,0.014,0.944-0.042,1.126,0.711c-0.645,0.658-1.34,1.382-2.049,2.091
	c-8.731,8.735-17.468,17.466-26.189,26.211c-0.55,0.551-1.306,0.991-1.479,1.944c0.354,0.091,0.601,0.211,0.848,0.211
	C396.816,112.708,443.91,112.708,491.694,112.708z M200.531,109.765c2.36,0.075,4.274-0.038,6.175,0.071
	c1.503,0.086,2.592-0.457,3.692-1.456c4.432-4.022,8.869-8.044,13.451-11.891c3.948-3.314,8.064-6.434,12.167-9.559
	c2.93-2.23,5.919-4.388,8.957-6.469c3.418-2.342,6.881-4.623,10.395-6.817c4.219-2.634,8.457-5.246,12.788-7.686
	c4.17-2.349,8.438-4.53,12.719-6.669c4.694-2.345,9.393-4.697,14.196-6.802c11.311-4.956,22.863-9.27,34.691-12.852
	c7.852-2.377,15.808-4.315,23.794-6.157c7.457-1.719,15.035-2.725,22.583-3.896c8.748-1.357,17.567-2.069,26.401-2.471
	c12.53-0.57,25.064-0.49,37.575,0.502c4.681,0.371,9.345,0.951,14.016,1.432c5.044,0.519,10.007,1.58,15.019,2.27
	c10.162,1.398,20.037,4.012,29.898,6.682c7.555,2.045,14.971,4.547,22.332,7.23c9.617,3.505,19,7.544,28.216,11.967
	c4.895,2.349,9.652,4.99,14.428,7.58c2.993,1.623,5.892,3.42,8.856,5.095c8.437,4.766,16.377,10.292,24.207,15.964
	c4.697,3.402,9.169,7.115,13.71,10.729c1.871,1.49,3.689,3.052,5.476,4.645c2.816,2.513,5.596,5.07,8.368,7.633
	c0.718,0.664,1.493,1.003,2.482,0.98c1.843-0.043,3.688-0.005,5.53-0.033c0.324-0.005,0.646-0.164,1.022-0.267
	c-2.223-3.251-16.284-15.716-26.661-23.755c-26.147-20.258-54.787-35.979-85.938-47.084c-30.7-10.944-62.361-16.882-94.941-17.803
	c-33.902-0.958-67.098,3.491-99.529,13.438c-29.901,9.171-57.785,22.573-83.635,40.188
	C228.309,84.497,205.436,103.421,200.531,109.765z M211.343,560.719c3.99,5.168,29.004,24.009,44.836,33.652
	c32.766,19.96,68.04,33.4,105.785,40.261c36.54,6.641,73.128,6.69,109.687,0.162c36.642-6.542,70.991-19.34,103.064-38.236
	c16.215-9.554,43.583-29.753,48.45-35.82c-0.496-0.112-0.91-0.279-1.327-0.288c-1.566-0.033-3.145,0.097-4.698-0.046
	c-1.823-0.166-3.179,0.549-4.468,1.719c-5.123,4.651-10.668,8.788-16.237,12.866c-5.195,3.806-10.625,7.293-15.993,10.858
	c-5.218,3.466-10.652,6.571-16.126,9.619c-6.441,3.586-13.022,6.87-19.69,10.01c-5.172,2.435-10.426,4.658-15.726,6.774
	c-8.039,3.209-16.204,6.067-24.491,8.583c-7.584,2.303-15.286,4.117-22.986,5.958c-4.663,1.115-9.407,1.753-14.12,2.583
	c-8.169,1.438-16.382,2.509-24.645,3.164c-5.232,0.415-10.48,0.736-15.728,0.851c-6.537,0.144-13.08,0.084-19.619,0.015
	c-7.376-0.078-14.737-0.638-22.053-1.483c-8.041-0.929-16.05-2.189-24.037-3.517c-4.625-0.769-9.183-1.947-13.768-2.952
	c-8.013-1.757-15.882-4.055-23.668-6.604c-6.997-2.291-13.905-4.84-20.736-7.615c-5.978-2.428-11.812-5.158-17.675-7.829
	c-2.093-0.954-4.113-2.07-6.141-3.161c-4.944-2.658-9.92-5.265-14.795-8.048c-3.836-2.189-7.598-4.524-11.288-6.954
	c-5.381-3.545-10.791-7.067-15.96-10.904c-5.467-4.059-10.674-8.468-15.98-12.742c-0.89-0.718-1.796-1.216-2.998-1.176
	c-1.934,0.064-3.871,0.011-5.806,0.038C212.068,560.461,211.733,560.619,211.343,560.719z"/>
<path fill-rule="evenodd" clip-rule="evenodd" d="M840.081,138.689c0.381,3.055,0.183,5.788,0.181,8.628
	c-0.662,0.119-1.181,0.269-1.705,0.295c-0.92,0.045-1.843,0.016-2.765,0.016c-277.122,0-554.244,0-831.366-0.005
	c-1.36,0-2.736,0.111-4.028-0.131c-0.552-2.53-0.511-6.65,0.068-8.652c0.417-0.048,0.867-0.144,1.316-0.144
	C281.107,138.689,560.432,138.689,840.081,138.689z"/>
<path fill-rule="evenodd" clip-rule="evenodd" d="M662.373,109.347c-0.472,0.645-1.069,0.451-1.583,0.454
	c-3.41,0.021-6.822-0.051-10.23,0.041c-1.432,0.038-2.394-0.481-3.353-1.497c-7.728-8.183-16.027-15.758-24.606-23.034
	c-13.884-11.774-28.765-22.126-44.497-31.269c-20.947-12.172-42.981-21.893-66.071-29.203c-13.009-4.118-26.231-7.369-39.71-9.588
	c-7.457-1.228-14.935-2.287-22.446-3.043c-8.157-0.821-16.348-1.213-24.545-1.525c-8.21-0.313-16.404-0.03-24.592,0.333
	c-7.54,0.335-15.067,1-22.57,1.936c-7.408,0.924-14.776,2.053-22.115,3.399c-13.887,2.548-27.447,6.328-40.799,10.877
	c-25.056,8.537-48.716,19.982-71.019,34.227c-12.836,8.199-25.013,17.291-36.409,27.4c-5.168,4.584-10.214,9.308-15.256,14.032
	c-1.88,1.762-3.616,3.682-5.362,5.581c-0.87,0.946-1.82,1.396-3.139,1.368c-3.501-0.073-7.005-0.022-10.507-0.03
	c-0.439-0.001-0.877-0.058-1.238-0.083c-0.395-0.685,0.045-1.004,0.329-1.312c2.312-2.506,4.605-5.032,6.974-7.483
	c17.56-18.167,36.92-34.157,58.135-47.885c23.949-15.497,49.474-27.702,76.581-36.602c12.879-4.228,25.966-7.663,39.262-10.268
	c9.22-1.807,18.498-3.267,27.855-4.216c7.518-0.763,15.043-1.313,22.591-1.71c7.373-0.388,14.736-0.22,22.103-0.237
	c3.954-0.01,7.918,0.238,11.86,0.574c6.699,0.571,13.389,1.266,20.074,1.978c6.781,0.722,13.496,1.886,20.198,3.138
	c19.515,3.645,38.527,9.051,57.067,16.15c26.561,10.171,51.382,23.559,74.486,40.136c18.562,13.318,35.542,28.42,50.964,45.273
	C661.399,107.909,662.165,108.465,662.373,109.347z"/>
<path fill-rule="evenodd" clip-rule="evenodd" d="M0.255,129.859c-0.324-1.899-0.351-3.425-0.011-5.11
	c0.533-0.108,1.043-0.271,1.562-0.303c0.827-0.052,1.659-0.018,2.488-0.018c277.277,0,554.555-0.001,831.833,0.012
	c1.266,0,2.567-0.234,3.881,0.268c0.454,1.641,0.374,3.241,0.062,4.931c-0.428,0.084-0.776,0.212-1.125,0.212
	C559.463,129.86,279.98,129.859,0.255,129.859z"/>
<path fill-rule="evenodd" clip-rule="evenodd" d="M491.694,112.708c-47.784,0-94.878,0-141.972-0.008
	c-0.247,0-0.494-0.12-0.848-0.211c0.174-0.954,0.93-1.393,1.479-1.944c8.722-8.745,17.458-17.476,26.189-26.211
	c0.709-0.709,1.404-1.433,2.049-2.091c-0.182-0.753-0.688-0.697-1.126-0.711c-0.828-0.026-1.658-0.017-2.488-0.017
	c-12.351,0-24.701,0.001-37.052-0.005c-0.997,0-1.995-0.063-3.15-0.103c-0.432-2.967-0.199-5.765-0.18-8.415
	c0.916-0.751,1.779-0.526,2.581-0.528c6.544-0.019,13.089-0.011,19.633-0.011c9.493,0,18.986,0,28.479,0
	c0.738,0,1.484,0.064,2.209-0.034c0.516-0.07,1.125-0.235,1.479-0.578c2.567-2.49,5.124-4.993,7.525-7.519
	c-0.28-0.776-0.788-0.664-1.218-0.667c-2.673-0.015-5.346-0.016-8.019-0.016c-16.406-0.001-32.812,0.002-49.219-0.008
	c-1.08,0-2.19,0.16-3.371-0.294c-0.237-1.579-0.14-3.094-0.037-4.804c1.066-0.058,1.961-0.146,2.856-0.147
	c6.544-0.012,13.088-0.006,19.632-0.006c13.825,0,27.65,0,41.476,0c0.646,0,1.3-0.068,1.935,0.013
	c1.424,0.182,2.414-0.421,3.392-1.415c4.588-4.666,9.238-9.271,13.87-13.894c0.648-0.647,1.314-1.277,1.92-1.865
	c0.996-0.069,1.367,0.673,1.858,1.161c4.643,4.611,9.262,9.247,13.893,13.871c0.713,0.712,1.448,1.402,2.2,2.129
	c22.525,0.001,44.997,0,67.566,0c0.521,1.703,0.279,3.24,0.215,4.912c-0.524,0.115-1.032,0.291-1.549,0.326
	c-0.826,0.057-1.658,0.021-2.488,0.021c-18.249,0-36.499-0.002-54.748,0.009c-0.977,0-1.984-0.148-3.197,0.243
	c0.386,0.543,0.588,0.929,0.88,1.225c2.073,2.098,4.196,4.147,6.233,6.278c0.774,0.81,1.616,1.098,2.697,1.073
	c2.119-0.047,4.239-0.012,6.359-0.012c14.194,0,28.389-0.001,42.583,0.004c0.993,0,1.987,0.061,2.919,0.091
	c0.519,2.205,0.55,6.279,0.107,8.656c-1.027,0.524-2.153,0.298-3.238,0.3c-12.442,0.017-24.886,0.01-37.328,0.012
	c-1.005,0-2.01,0.025-2.951,0.038c-0.391,1.004,0.363,1.298,0.768,1.706c4.676,4.709,9.374,9.396,14.066,14.089
	c4.366,4.367,8.736,8.73,13.096,13.104C490.222,111.015,490.729,111.632,491.694,112.708z M367.654,104.813c1.649,0,2.646,0,3.643,0
	c32.428,0,64.856,0,97.284,0c0.737,0,1.477,0.028,2.211-0.017c0.403-0.024,0.8-0.174,1.285-0.287
	c-1.384-1.848-32.119-32.79-50.352-50.724c-0.515-0.506-1.081-0.96-1.771-1.57c-17.093,17.054-34.065,34.064-51.061,51.053
	C368.584,103.579,368.339,103.955,367.654,104.813z"/>
<path fill-rule="evenodd" clip-rule="evenodd" d="M200.531,109.765c4.904-6.344,27.777-25.269,42.441-35.26
	c25.85-17.615,53.734-31.017,83.635-40.188c32.432-9.947,65.627-14.396,99.529-13.438c32.58,0.921,64.241,6.859,94.941,17.803
	c31.151,11.105,59.791,26.826,85.938,47.084c10.377,8.039,24.438,20.504,26.661,23.755c-0.377,0.103-0.698,0.262-1.022,0.267
	c-1.843,0.027-3.688-0.011-5.53,0.033c-0.989,0.023-1.765-0.316-2.482-0.98c-2.772-2.563-5.552-5.12-8.368-7.633
	c-1.786-1.593-3.604-3.155-5.476-4.645c-4.541-3.614-9.013-7.327-13.71-10.729c-7.83-5.672-15.771-11.198-24.207-15.964
	c-2.965-1.675-5.863-3.472-8.856-5.095c-4.775-2.59-9.533-5.231-14.428-7.58c-9.216-4.423-18.599-8.462-28.216-11.967
	c-7.361-2.683-14.777-5.185-22.332-7.23c-9.861-2.669-19.736-5.283-29.898-6.682c-5.012-0.69-9.975-1.75-15.019-2.27
	c-4.671-0.481-9.335-1.061-14.016-1.432c-12.511-0.992-25.045-1.072-37.575-0.502c-8.834,0.401-17.653,1.113-26.401,2.471
	c-7.548,1.171-15.126,2.177-22.583,3.896c-7.986,1.842-15.942,3.78-23.794,6.157c-11.828,3.582-23.381,7.896-34.691,12.852
	c-4.804,2.105-9.502,4.457-14.196,6.802c-4.281,2.14-8.549,4.321-12.719,6.669c-4.331,2.44-8.569,5.052-12.788,7.686
	c-3.514,2.194-6.977,4.476-10.395,6.817c-3.038,2.081-6.027,4.238-8.957,6.469c-4.103,3.125-8.219,6.244-12.167,9.559
	c-4.583,3.847-9.02,7.869-13.451,11.891c-1.1,0.999-2.189,1.542-3.692,1.456C204.805,109.727,202.892,109.84,200.531,109.765z"/>
<path fill-rule="evenodd" clip-rule="evenodd" fill="none" d="M367.654,104.813c0.685-0.858,0.93-1.234,1.24-1.545
	c16.995-16.988,33.968-33.999,51.061-51.053c0.689,0.609,1.256,1.063,1.771,1.57c18.232,17.934,48.968,48.876,50.352,50.724
	c-0.485,0.113-0.882,0.262-1.285,0.287c-0.734,0.045-1.474,0.017-2.211,0.017c-32.428,0-64.856,0-97.284,0
	C370.3,104.813,369.304,104.813,367.654,104.813z"/>
</svg>
