<?xml version="1.0" encoding="utf-8"?>
<!-- Generator: Adobe Illustrator 16.0.0, SVG Export Plug-In . SVG Version: 6.00 Build 0)  -->
<!DOCTYPE svg PUBLIC "-//W3C//DTD SVG 1.1//EN" "http://www.w3.org/Graphics/SVG/1.1/DTD/svg11.dtd">
<svg version="1.1" xmlns="http://www.w3.org/2000/svg" xmlns:xlink="http://www.w3.org/1999/xlink" x="0px" y="0px" width="26.4px"
	 height="56.101px" viewBox="0 0 26.4 56.101" enable-background="new 0 0 26.4 56.101" xml:space="preserve">
<g id="Layer_1">
</g>
<g id="Layer_2">
	<g>
		<rect x="3.3" y="52.8" width="23.101" height="3.3"/>
		<rect x="16.5" y="3.3" width="6.601" height="49.5"/>
		<rect x="3.3" width="23.101" height="3.3"/>
		<rect y="13.2" width="16.5" height="3.3"/>
	</g>
	<path d="M16.5,51.15c0,0.911-0.739,1.65-1.649,1.65h0.026H16.5v-1.623"/>
	<path d="M16.5,11.55c0,0.911-0.739,1.65-1.649,1.65h0.026H16.5v-1.623"/>
	<path d="M23.101,4.95c0-0.911,0.738-1.65,1.649-1.65h-0.026h-1.623v1.623"/>
	<path d="M24.75,52.8c-0.911,0-1.649-0.739-1.649-1.65v0.027V52.8h1.623"/>
	<path d="M14.851,3.3c0.91,0,1.649,0.739,1.649,1.65V4.923V3.3h-1.623"/>
	<path d="M14.851,16.5c0.91,0,1.649,0.739,1.649,1.65v-0.027V16.5h-1.623"/>
</g>
</svg>
