<?xml version="1.0" encoding="utf-8"?>
<!-- Generator: Adobe Illustrator 16.0.0, SVG Export Plug-In . SVG Version: 6.00 Build 0)  -->
<!DOCTYPE svg PUBLIC "-//W3C//DTD SVG 1.1//EN" "http://www.w3.org/Graphics/SVG/1.1/DTD/svg11.dtd">
<svg version="1.1" xmlns="http://www.w3.org/2000/svg" xmlns:xlink="http://www.w3.org/1999/xlink" x="0px" y="0px" width="39.6px"
	 height="56.101px" viewBox="0 0 39.6 56.101" enable-background="new 0 0 39.6 56.101" xml:space="preserve">
<g id="Layer_1">
</g>
<g id="Layer_2">
	<g>
		<polygon points="6.6,3.3 13.199,3.3 23.1,52.8 16.5,52.8 		"/>
		<polygon points="33,3.3 23.1,52.8 19.8,52.8 29.699,3.3 		"/>
		<rect x="9.899" y="52.8" width="19.8" height="3.3"/>
		<rect width="39.6" height="3.3"/>
		<rect y="13.2" width="39.6" height="3.3"/>
	</g>
	<path d="M16.174,51.15c0,0.911-0.739,1.65-1.65,1.65h0.027h1.623v-1.623"/>
	<path d="M8.25,11.55c0,0.911-0.739,1.65-1.65,1.65h0.027H8.25v-1.623"/>
	<path d="M28.05,11.55c0,0.911-0.739,1.65-1.65,1.65h0.027h1.623v-1.623"/>
	<rect x="16.174" y="51.15" width="1.649" height="1.65"/>
	<rect x="21.766" y="51.15" width="1.65" height="1.65"/>
	<rect x="26.757" y="16.5" width="1.65" height="1.65"/>
	<rect x="29.727" y="11.55" width="1.65" height="1.65"/>
	<rect x="29.396" y="3.3" width="1.65" height="1.65"/>
	<rect x="14.485" y="16.5" width="1.649" height="1.65"/>
	<rect x="8.25" y="11.55" width="1.649" height="1.65"/>
	<rect x="11.865" y="3.3" width="1.65" height="1.65"/>
	<path d="M25.065,52.8c-0.911,0-1.649-0.739-1.649-1.65v0.027V52.8h1.623"/>
	<path d="M33.027,13.2c-0.911,0-1.65-0.739-1.65-1.65v0.027V13.2H33"/>
	<path d="M16.5,13.2c-0.911,0-1.65-0.739-1.65-1.65v0.027V13.2h1.623"/>
	<path d="M25.107,16.5c0.91,0,1.649,0.739,1.649,1.65v-0.027V16.5h-1.623"/>
	<path d="M27.747,3.3c0.911,0,1.649,0.739,1.649,1.65V4.923V3.3h-1.622"/>
	<path d="M5.286,3.3c0.911,0,1.65,0.739,1.65,1.65V4.923V3.3H5.313"/>
	<path d="M7.927,16.5c0.911,0,1.649,0.739,1.649,1.65v-0.027V16.5H7.953"/>
	<path d="M16.135,18.15c0-0.911,0.739-1.65,1.65-1.65h-0.027h-1.623v1.623"/>
	<path d="M13.516,4.95c0-0.911,0.739-1.65,1.65-1.65h-0.027h-1.623v1.623"/>
	<path d="M30.056,18.15c0-0.911,0.739-1.65,1.649-1.65h-0.026h-1.623v1.623"/>
	<path d="M32.684,4.95c0-0.911,0.738-1.65,1.649-1.65h-0.026h-1.623v1.623"/>
</g>
</svg>
