<?xml version="1.0" encoding="utf-8"?>
<!-- Generator: Adobe Illustrator 16.0.0, SVG Export Plug-In . SVG Version: 6.00 Build 0)  -->
<!DOCTYPE svg PUBLIC "-//W3C//DTD SVG 1.1//EN" "http://www.w3.org/Graphics/SVG/1.1/DTD/svg11.dtd">
<svg version="1.1" xmlns="http://www.w3.org/2000/svg" xmlns:xlink="http://www.w3.org/1999/xlink" x="0px" y="0px" width="26.4px"
	 height="56.101px" viewBox="0 0 26.4 56.101" enable-background="new 0 0 26.4 56.101" xml:space="preserve">
<g id="Layer_1">
</g>
<g id="Layer_2">
	<g>
		<rect width="6.601" height="3.3"/>
		<rect y="3.3" width="3.3" height="9.9"/>
		<rect x="3.3" y="16.5" width="6.601" height="36.3"/>
		<rect x="16.5" y="16.5" width="6.601" height="36.3"/>
		<rect y="13.2" width="26.4" height="3.3"/>
		<rect y="52.8" width="26.4" height="3.3"/>
	</g>
	<path d="M16.5,51.15c0,0.911-0.739,1.65-1.649,1.65h0.026H16.5v-1.623"/>
	<path d="M3.3,51.15c0,0.911-0.738,1.65-1.649,1.65h0.026H3.3v-1.623"/>
	<path d="M3.3,4.95c0-0.911,0.739-1.65,1.65-1.65H4.923H3.3v1.623"/>
	<path d="M9.9,18.15c0-0.911,0.739-1.65,1.649-1.65h-0.026H9.9v1.623"/>
	<path d="M23.101,18.15c0-0.911,0.738-1.65,1.649-1.65h-0.026h-1.623v1.623"/>
	<path d="M4.95,13.2c-0.911,0-1.65-0.739-1.65-1.65v0.027V13.2h1.623"/>
	<path d="M11.55,52.801c-0.91,0-1.649-0.739-1.649-1.65v0.027v1.623h1.623"/>
	<path d="M24.75,52.801c-0.911,0-1.649-0.739-1.649-1.65v0.027v1.623h1.623"/>
	<path d="M1.65,16.5c0.911,0,1.649,0.739,1.649,1.65v-0.027V16.5H1.677"/>
	<path d="M14.851,16.5c0.91,0,1.649,0.739,1.649,1.65v-0.027V16.5h-1.623"/>
</g>
</svg>
