<?xml version="1.0" encoding="utf-8"?>
<!-- Generator: Adobe Illustrator 16.0.0, SVG Export Plug-In . SVG Version: 6.00 Build 0)  -->
<!DOCTYPE svg PUBLIC "-//W3C//DTD SVG 1.1//EN" "http://www.w3.org/Graphics/SVG/1.1/DTD/svg11.dtd">
<svg version="1.1" xmlns="http://www.w3.org/2000/svg" xmlns:xlink="http://www.w3.org/1999/xlink" x="0px" y="0px" width="33px"
	 height="56.1px" viewBox="0 0 33 56.1" enable-background="new 0 0 33 56.1" xml:space="preserve">
<g id="Layer_1">
</g>
<g id="Layer_2">
	<g>
		<rect x="9.9" y="0" width="13.199" height="3.3"/>
		<rect x="4.95" y="39.6" width="24.75" height="3.3"/>
		<rect x="13.2" y="3.3" width="6.6" height="36.3"/>
		<rect x="23.1" y="42.9" width="6.601" height="9.9"/>
		<rect y="52.8" width="33" height="3.3"/>
		<rect x="4.95" y="42.9" width="3.3" height="9.9"/>
	</g>
	<path d="M13.2,37.95c0,0.911-0.739,1.65-1.65,1.65h0.027H13.2v-1.623"/>
	<path d="M4.95,51.15c0,0.911-0.739,1.65-1.65,1.65h0.027H4.95v-1.623"/>
	<path d="M23.1,51.15c0,0.911-0.738,1.65-1.649,1.65h0.026H23.1v-1.623"/>
	<path d="M19.8,4.95c0-0.911,0.739-1.65,1.65-1.65h-0.027H19.8v1.623"/>
	<path d="M8.25,44.55c0-0.912,0.739-1.65,1.65-1.65H9.873H8.25v1.623"/>
	<path d="M9.9,52.8c-0.911,0-1.65-0.739-1.65-1.65v0.027V52.8h1.623"/>
	<path d="M21.45,39.6c-0.911,0-1.65-0.739-1.65-1.65v0.027V39.6h1.623"/>
	<path d="M31.35,52.8c-0.91,0-1.649-0.739-1.649-1.65v0.027V52.8h1.623"/>
	<path d="M11.55,3.3c0.911,0,1.65,0.739,1.65,1.65V4.922V3.3h-1.623"/>
	<path d="M21.45,42.9c0.911,0,1.649,0.738,1.649,1.65v-0.027V42.9h-1.623"/>
</g>
</svg>
