<?xml version="1.0" encoding="utf-8"?>
<!-- Generator: Adobe Illustrator 16.0.0, SVG Export Plug-In . SVG Version: 6.00 Build 0)  -->
<!DOCTYPE svg PUBLIC "-//W3C//DTD SVG 1.1//EN" "http://www.w3.org/Graphics/SVG/1.1/DTD/svg11.dtd">
<svg version="1.1" xmlns="http://www.w3.org/2000/svg" xmlns:xlink="http://www.w3.org/1999/xlink" x="0px" y="0px" width="29.7px"
	 height="56.101px" viewBox="0 0 29.7 56.101" enable-background="new 0 0 29.7 56.101" xml:space="preserve">
<g id="Layer_1">
</g>
<g id="Layer_2">
	<g>
		<rect x="3.3" y="3.3" width="6.601" height="49.5"/>
		<rect x="19.8" y="3.3" width="6.601" height="49.5"/>
		<rect width="29.7" height="3.3"/>
		<rect y="52.8" width="29.7" height="3.3"/>
	</g>
	<path d="M19.8,51.15c0,0.911-0.738,1.65-1.649,1.65h0.027H19.8v-1.623"/>
	<path d="M3.3,51.15c0,0.911-0.738,1.65-1.649,1.65h0.027H3.3v-1.623"/>
	<path d="M9.9,4.95c0-0.911,0.739-1.65,1.649-1.65h-0.026H9.9v1.623"/>
	<path d="M26.4,4.95c0-0.911,0.739-1.65,1.649-1.65h-0.026H26.4v1.623"/>
	<path d="M11.55,52.8c-0.91,0-1.649-0.739-1.649-1.65v0.027V52.8h1.623"/>
	<path d="M28.05,52.8c-0.91,0-1.649-0.739-1.649-1.65v0.027V52.8h1.623"/>
	<path d="M18.15,3.3c0.911,0,1.649,0.739,1.649,1.65V4.923V3.3h-1.622"/>
	<path d="M1.65,3.3C2.562,3.3,3.3,4.039,3.3,4.95V4.923V3.3H1.678"/>
</g>
</svg>
