<?xml version="1.0" encoding="utf-8"?>
<!-- Generator: Adobe Illustrator 16.0.0, SVG Export Plug-In . SVG Version: 6.00 Build 0)  -->
<!DOCTYPE svg PUBLIC "-//W3C//DTD SVG 1.1//EN" "http://www.w3.org/Graphics/SVG/1.1/DTD/svg11.dtd">
<svg version="1.1" xmlns="http://www.w3.org/2000/svg" xmlns:xlink="http://www.w3.org/1999/xlink" x="0px" y="0px" width="39.6px"
	 height="56.1px" viewBox="0 0 39.6 56.1" enable-background="new 0 0 39.6 56.1" xml:space="preserve">
<g id="Layer_1">
</g>
<g id="Layer_2">
	<g>
		<rect width="39.6" height="3.3"/>
		<polygon points="39.6,56.1 0,56.1 0,52.8 6.6,52.8 39.6,52.8 		"/>
		<rect y="13.2" width="39.6" height="3.3"/>
		<polygon points="20.46,16.5 13.86,16.5 6.6,52.8 13.2,52.8 		"/>
		<polygon points="23.32,16.5 20.02,16.5 29.7,52.8 33,52.8 		"/>
	</g>
	<path d="M15.18,52.8c-0.91,0-1.649-0.739-1.649-1.65v0.027V52.8h1.623"/>
	<path d="M34.213,52.8c-0.91,0-1.649-0.739-1.649-1.65v0.027V52.8h1.623"/>
	<rect x="11.88" y="51.15" width="1.65" height="1.65"/>
	<rect x="29.273" y="51.15" width="1.65" height="1.65"/>
	<rect x="22.096" y="16.5" width="1.65" height="1.65"/>
	<rect x="13.53" y="16.5" width="1.649" height="1.65"/>
	<path d="M29.273,51.149c0,0.912-0.738,1.65-1.649,1.65h0.026h1.623v-1.623"/>
	<path d="M6.971,51.15c0,0.911-0.738,1.65-1.649,1.65h0.027h1.622v-1.623"/>
	<path d="M11.88,16.5c0.911,0,1.65,0.739,1.65,1.65v-0.027V16.5h-1.623"/>
	<path d="M23.746,18.15c0-0.911,0.739-1.65,1.65-1.65h-0.027h-1.623v1.623"/>
</g>
</svg>
