<?xml version="1.0" encoding="utf-8"?>
<!-- Generator: Adobe Illustrator 16.0.0, SVG Export Plug-In . SVG Version: 6.00 Build 0)  -->
<!DOCTYPE svg PUBLIC "-//W3C//DTD SVG 1.1//EN" "http://www.w3.org/Graphics/SVG/1.1/DTD/svg11.dtd">
<svg version="1.1" xmlns="http://www.w3.org/2000/svg" xmlns:xlink="http://www.w3.org/1999/xlink" x="0px" y="0px" width="26.4px"
	 height="56.1px" viewBox="0 0 26.4 56.1" enable-background="new 0 0 26.4 56.1" xml:space="preserve">
<g id="Layer_1">
</g>
<g id="Layer_2">
	<g>
		<rect y="13.2" width="16.5" height="3.3"/>
		<rect y="52.8" width="26.4" height="3.3"/>
		<rect width="26.4" height="3.3"/>
		<polygon points="0,52.8 19.8,3.3 26.4,3.3 6.6,52.8 		"/>
	</g>
	<path d="M8.917,52.8c-0.911,0-1.65-0.738-1.65-1.65v0.027V52.8H8.89"/>
	<rect x="5.617" y="51.15" width="1.649" height="1.65"/>
	<rect x="13.901" y="16.5" width="1.649" height="1.65"/>
	<rect x="19.153" y="3.3" width="1.65" height="1.65"/>
	<path d="M16.5,11.55c0,0.911-0.739,1.65-1.65,1.65h0.027H16.5v-1.623"/>
	<path d="M17.504,3.3c0.91,0,1.649,0.738,1.649,1.649V4.922V3.3H17.53"/>
	<path d="M12.251,16.5c0.911,0,1.65,0.739,1.65,1.65v-0.027V16.5h-1.623"/>
</g>
</svg>
