<?xml version="1.0" encoding="utf-8"?>
<!-- Generator: Adobe Illustrator 16.0.0, SVG Export Plug-In . SVG Version: 6.00 Build 0)  -->
<!DOCTYPE svg PUBLIC "-//W3C//DTD SVG 1.1//EN" "http://www.w3.org/Graphics/SVG/1.1/DTD/svg11.dtd">
<svg version="1.1" xmlns="http://www.w3.org/2000/svg" xmlns:xlink="http://www.w3.org/1999/xlink" x="0px" y="0px"
	 width="29.578px" height="59.157px" viewBox="0 0 29.578 59.157" enable-background="new 0 0 29.578 59.157" xml:space="preserve">
<g id="Layer_1">
</g>
<g id="Layer_2">
	<polygon points="-29.578,0 0,0 0,23.663 -17.747,23.663 -17.747,29.579 0,29.579 0,53.242 -29.578,53.242 	"/>
	<polygon points="0,0 29.578,0 29.578,17.748 23.663,17.748 23.663,23.663 29.578,23.663 29.578,53.242 0,53.242 	"/>
	<polygon points="29.578,0 59.157,0 59.157,11.833 41.41,11.833 41.41,17.748 59.157,17.748 59.157,53.242 29.578,53.242 	"/>
	<circle cx="-2.958" cy="56.199" r="2.958"/>
	<circle cx="26.62" cy="56.199" r="2.958"/>
	<text transform="matrix(1 0 0 1 10.7861 75.5371)" font-family="'MyriadPro-Regular'" font-size="19.92">6</text>
</g>
</svg>
