<?xml version="1.0" encoding="utf-8"?>
<!-- Generator: Adobe Illustrator 16.0.0, SVG Export Plug-In . SVG Version: 6.00 Build 0)  -->
<!DOCTYPE svg PUBLIC "-//W3C//DTD SVG 1.1//EN" "http://www.w3.org/Graphics/SVG/1.1/DTD/svg11.dtd">
<svg version="1.1" xmlns="http://www.w3.org/2000/svg" xmlns:xlink="http://www.w3.org/1999/xlink" x="0px" y="0px"
	 width="29.574px" height="59.53px" viewBox="0 0 29.574 59.53" enable-background="new 0 0 29.574 59.53" xml:space="preserve">
<g id="Layer_1">
</g>
<g id="Layer_2">
	<path fill-rule="evenodd" clip-rule="evenodd" d="M29.569,53.467c-9.913,0-19.647,0-29.555,0c0-11.785,0-23.506,0-35.428
		c-0.069,0.08,0.02-0.063,0.146-0.158c0.118-0.09,0.276-0.183,0.416-0.183c5.615-0.009,11.23-0.007,17.02-0.007
		c0-1.907,0-3.69,0-5.664c0.067,0.064-0.039-0.069-0.176-0.155c-0.127-0.08-0.286-0.151-0.431-0.151
		C11.379,11.713,5.768,11.714,0,11.714C0,7.774,0,4.008,0,0c9.709,0,19.562,0,29.569,0C29.569,17.642,29.569,35.333,29.569,53.467z"
		/>
	<circle cx="26.616" cy="56.425" r="2.958"/>
</g>
</svg>
