<?xml version="1.0" encoding="utf-8"?>
<!-- Generator: Adobe Illustrator 16.0.0, SVG Export Plug-In . SVG Version: 6.00 Build 0)  -->
<!DOCTYPE svg PUBLIC "-//W3C//DTD SVG 1.1//EN" "http://www.w3.org/Graphics/SVG/1.1/DTD/svg11.dtd">
<svg version="1.1" xmlns="http://www.w3.org/2000/svg" xmlns:xlink="http://www.w3.org/1999/xlink" x="0px" y="0px"
	 width="29.783px" height="59.406px" viewBox="0 0 29.783 59.406" enable-background="new 0 0 29.783 59.406" xml:space="preserve">
<g id="Layer_1">
</g>
<g id="Layer_2">
	<path fill-rule="evenodd" clip-rule="evenodd" d="M0,37.874c0-7.584,0-14.663,0-21.916c5.813,0,11.567,0,17.766,0
		c0.169-2.716,0.053-5.31,0.074-7.892c0.022-2.629,0.005-5.259,0.005-8.052c3.922,0,7.689,0,11.705,0c0,17.639,0,35.445,0,53.438
		c-3.633,0-7.396,0-11.643,0c-0.157-2.349-0.033-4.938-0.057-7.514c-0.023-2.632-0.006-5.263-0.006-8.064
		C11.95,37.874,6.197,37.874,0,37.874z"/>
	<circle cx="26.591" cy="56.447" r="2.958"/>
</g>
</svg>
