<?xml version="1.0" encoding="utf-8"?>
<!-- Generator: Adobe Illustrator 16.0.0, SVG Export Plug-In . SVG Version: 6.00 Build 0)  -->
<!DOCTYPE svg PUBLIC "-//W3C//DTD SVG 1.1//EN" "http://www.w3.org/Graphics/SVG/1.1/DTD/svg11.dtd">
<svg version="1.1" xmlns="http://www.w3.org/2000/svg" xmlns:xlink="http://www.w3.org/1999/xlink" x="0px" y="0px"
	 width="29.393px" height="59.38px" viewBox="0 0 29.393 59.38" enable-background="new 0 0 29.393 59.38" xml:space="preserve">
<g id="Layer_1">
</g>
<g id="Layer_2">
	<path fill-rule="evenodd" clip-rule="evenodd" d="M17.597,41.851c0-10.252,0-19.986,0-29.886c-5.835,0-11.592,0-17.597,0
		C0,7.927,0,4.042,0,0c9.679,0,19.414,0,29.393,0c0,17.669,0,35.481,0,53.466c-9.641,0-19.374,0-29.531,0
		c-0.034-1.717-0.086-3.634-0.104-5.552c-0.02-1.967-0.005-3.936-0.005-6.063C5.668,41.851,11.425,41.851,17.597,41.851z"/>
	<circle cx="26.434" cy="56.447" r="2.958"/>
</g>
</svg>
