<?xml version="1.0" encoding="utf-8"?>
<!-- Generator: Adobe Illustrator 16.0.0, SVG Export Plug-In . SVG Version: 6.00 Build 0)  -->
<!DOCTYPE svg PUBLIC "-//W3C//DTD SVG 1.1//EN" "http://www.w3.org/Graphics/SVG/1.1/DTD/svg11.dtd">
<svg version="1.1" xmlns="http://www.w3.org/2000/svg" xmlns:xlink="http://www.w3.org/1999/xlink" x="0px" y="0px"
	 width="29.496px" height="59.667px" viewBox="0 0 29.496 59.667" enable-background="new 0 0 29.496 59.667" xml:space="preserve">
<g id="Layer_1">
</g>
<g id="Layer_2">
	<path fill-rule="evenodd" clip-rule="evenodd" d="M29.503,53.584c-9.923,0-19.669,0-29.561,0c0-5.86,0-11.623,0-17.738
		c5.781,0,11.67,0,17.665,0c0-2.126,0-3.904,0-5.875c-5.752,0-11.512,0-17.542,0c0-2.058,0-3.941,0-6.021c5.664,0,11.428,0,17.426,0
		c0-6.05,0-11.93,0-17.989c-5.76,0-11.524,0-17.491,0C0,3.897,0,2.003,0,0c9.836,0,19.582,0,29.503,0
		C29.503,17.758,29.503,35.474,29.503,53.584z"/>
	<circle cx="26.541" cy="56.645" r="2.958"/>
</g>
</svg>
