<?xml version="1.0" encoding="utf-8"?>
<!-- Generator: Adobe Illustrator 16.0.0, SVG Export Plug-In . SVG Version: 6.00 Build 0)  -->
<!DOCTYPE svg PUBLIC "-//W3C//DTD SVG 1.1//EN" "http://www.w3.org/Graphics/SVG/1.1/DTD/svg11.dtd">
<svg version="1.1" xmlns="http://www.w3.org/2000/svg" xmlns:xlink="http://www.w3.org/1999/xlink" x="0px" y="0px" width="29.57px"
	 height="59.615px" viewBox="0 0 29.57 59.615" enable-background="new 0 0 29.57 59.615" xml:space="preserve">
<g id="Layer_1">
</g>
<g id="Layer_2">
	<path fill-rule="evenodd" clip-rule="evenodd" d="M17.611-0.06c4.283,0,8.048,0,11.966,0c0,17.775,0,35.459,0,53.324
		c0.05-0.059-0.039,0.085-0.164,0.18c-0.118,0.09-0.275,0.183-0.416,0.183c-9.592,0.01-19.183,0.008-28.961,0.008
		c0-4.003,0-7.884,0-11.93c5.876,0,11.632,0,17.563,0c0-1.927,0-3.701,0-5.672c0.066,0.071-0.031-0.07-0.163-0.161
		c-0.122-0.083-0.282-0.16-0.426-0.16c-5.61-0.008-11.22-0.007-16.995-0.007c0-7.901,0-15.644,0-23.563
		c-0.055,0.06,0.041-0.082,0.173-0.173c0.122-0.085,0.282-0.162,0.426-0.162c5.61-0.009,11.22-0.008,16.997-0.008
		C17.611,7.879,17.611,4.112,17.611-0.06z"/>
	<circle cx="26.7" cy="56.656" r="2.958"/>
</g>
</svg>
