<?xml version="1.0" encoding="utf-8"?>
<!-- Generator: Adobe Illustrator 16.0.0, SVG Export Plug-In . SVG Version: 6.00 Build 0)  -->
<!DOCTYPE svg PUBLIC "-//W3C//DTD SVG 1.1//EN" "http://www.w3.org/Graphics/SVG/1.1/DTD/svg11.dtd">
<svg version="1.1" xmlns="http://www.w3.org/2000/svg" xmlns:xlink="http://www.w3.org/1999/xlink" x="0px" y="0px"
	 width="29.543px" height="59.687px" viewBox="0 0 29.543 59.687" enable-background="new 0 0 29.543 59.687" xml:space="preserve">
<g id="Layer_1">
</g>
<g id="Layer_2">
	<path fill-rule="evenodd" clip-rule="evenodd" d="M0,0c9.9,0,19.636,0,29.543,0c0,17.881,0,35.69,0,53.604
		c-9.855,0-19.59,0-29.517,0c0-3.891,0-7.772,0-11.822c5.864,0,11.622,0,17.556,0c0-3.921,0-7.687,0-11.649
		c0.071,0.077-0.024-0.065-0.153-0.157c-0.122-0.086-0.281-0.167-0.424-0.168C11.393,29.799,5.779,29.801,0,29.801
		C0,19.908,0,10.174,0,0z"/>
	<circle cx="26.584" cy="56.664" r="2.958"/>
</g>
</svg>
