<?xml version="1.0" encoding="utf-8"?>
<!-- Generator: Adobe Illustrator 16.0.0, SVG Export Plug-In . SVG Version: 6.00 Build 0)  -->
<!DOCTYPE svg PUBLIC "-//W3C//DTD SVG 1.1//EN" "http://www.w3.org/Graphics/SVG/1.1/DTD/svg11.dtd">
<svg version="1.1" xmlns="http://www.w3.org/2000/svg" xmlns:xlink="http://www.w3.org/1999/xlink" x="0px" y="0px"
	 width="29.502px" height="59.517px" viewBox="0 0 29.502 59.517" enable-background="new 0 0 29.502 59.517" xml:space="preserve">
<g id="Layer_1">
</g>
<g id="Layer_2">
	<path fill-rule="evenodd" clip-rule="evenodd" d="M29.502,53.585c-9.921,0-19.666,0-29.56,0c0-3.867,0-7.638,0-11.762
		c5.78,0,11.668,0,17.665,0c0-6.112,0-11.874,0-17.828c-5.75,0-11.51,0-17.542,0c0-2.059,0-3.945,0-6.02c5.662,0,11.426,0,17.425,0
		c0-2.059,0-3.955,0-6.036c-5.759,0-11.523,0-17.49,0C0,7.88,0,3.992,0,0c9.834,0,19.58,0,29.502,0
		C29.502,17.757,29.502,35.472,29.502,53.585z"/>
	<circle cx="26.597" cy="56.559" r="2.958"/>
</g>
</svg>
