<?xml version="1.0" encoding="utf-8"?>
<!-- Generator: Adobe Illustrator 16.0.0, SVG Export Plug-In . SVG Version: 6.00 Build 0)  -->
<!DOCTYPE svg PUBLIC "-//W3C//DTD SVG 1.1//EN" "http://www.w3.org/Graphics/SVG/1.1/DTD/svg11.dtd">
<svg version="1.1" id="Layer_1" xmlns="http://www.w3.org/2000/svg" xmlns:xlink="http://www.w3.org/1999/xlink" x="0px" y="0px"
	 width="381.317px" height="697.242px" viewBox="0 0 381.317 697.242" enable-background="new 0 0 381.317 697.242"
	 xml:space="preserve">
<g>
	<path fill-rule="evenodd" clip-rule="evenodd" fill="#FE0000" d="M381.285,348.497c0,113,0,225.999,0,339
		c0,1.068,0.055,2.142-0.021,3.205c-0.068,0.969-0.169,1.963-0.45,2.886c-0.7,2.304-2.3,3.498-4.722,3.637
		c-0.888,0.05-1.78,0.018-2.67,0.018c-122.17,0-244.339,0.001-366.509-0.002c-1.24,0-2.495,0.126-3.688-0.389
		c-1.058-0.458-1.495-1.298-1.061-2.366c0.264-0.646,0.661-1.261,1.091-1.817c0.487-0.631,1.059-1.201,1.625-1.766
		c36.006-35.9,72.062-71.752,108.015-107.705c77.006-77.006,153.96-154.065,230.936-231.104c0.755-0.756,1.536-1.49,2.23-2.3
		c0.694-0.81,0.672-1.574-0.024-2.41c-0.512-0.612-1.102-1.162-1.668-1.729c-46.314-46.371-92.607-92.762-138.95-139.105
		C142.768,143.899,80.08,81.286,17.401,18.663c-4.095-4.091-8.246-8.125-12.354-12.201C4.29,5.712,3.565,4.92,2.914,4.079
		C2.543,3.6,2.276,3.006,2.094,2.423c-0.271-0.868,0.09-1.603,0.93-1.965c0.481-0.207,1.012-0.347,1.532-0.402
		C5.26-0.021,5.977,0.004,6.689,0.004c122.351-0.001,244.7,0,367.05,0.001c0.891,0,1.782-0.016,2.671,0.026
		c1.979,0.094,3.396,1.102,4.108,2.904c0.415,1.056,0.597,2.223,0.736,3.358c0.12,0.965,0.03,1.956,0.03,2.936
		C381.285,122.318,381.285,235.408,381.285,348.497z"/>
	<path fill-rule="evenodd" clip-rule="evenodd" fill="#FE0000" d="M111.825,458.622c-34.639,0-69.279,0-103.918-0.002
		c-1.068,0-2.141,0.032-3.204-0.05c-2.359-0.182-3.734-1.325-4.375-3.629c-0.188-0.676-0.256-1.396-0.3-2.101
		c-0.051-0.799-0.016-1.603-0.016-2.403c0-68.479,0-136.955,0.001-205.433c0-0.979-0.043-1.962,0.025-2.938
		c0.241-3.416,2.059-5.156,5.476-5.276c0.8-0.028,1.603-0.01,2.404-0.01c69.457,0,138.914-0.002,208.37,0.015
		c1.412,0,2.867,0.046,4.227,0.379c2.736,0.67,4.173,2.536,4.39,5.358c0.062,0.797,0.039,1.602,0.04,2.403
		c0.004,16.562,0.016,33.125-0.005,49.688c-0.001,1.142-0.116,2.32-0.416,3.417c-0.553,2.021-2.016,3.089-4.091,3.259
		c-0.885,0.073-1.78,0.037-2.67,0.037c-20.837,0.001-41.674,0-62.512,0.002c-0.89,0-1.784-0.035-2.67,0.03
		c-3.383,0.251-5.4,2.279-5.618,5.626c-0.045,0.71-0.021,1.424-0.021,2.137c-0.001,25.734-0.001,51.469,0.001,77.203
		c0,0.89-0.038,1.787,0.063,2.668c0.296,2.591,1.712,4.231,4.268,4.848c1.025,0.247,2.109,0.349,3.167,0.349
		c21.372,0.012,42.743-0.001,64.113-0.007c0.712,0,1.427,0.002,2.136,0.052c1.773,0.126,3.031,1.053,3.652,2.684
		c0.342,0.896,0.513,1.887,0.587,2.849c0.096,1.238,0.018,2.491,0.018,3.738c-0.001,15.582,0,31.166-0.003,46.749
		c0,0.979,0.033,1.965-0.063,2.936c-0.281,2.807-2.092,4.795-4.875,5.243c-1.22,0.197-2.484,0.172-3.727,0.173
		C181.459,458.624,146.642,458.622,111.825,458.622z"/>
	<path fill-rule="evenodd" clip-rule="evenodd" fill="#FE0000" d="M191.217,382.015c-9.61,0-19.22,0-28.83-0.001
		c-0.801,0-1.607,0.039-2.401-0.041c-1.769-0.179-2.743-1.151-2.943-2.889c-0.061-0.528-0.041-1.066-0.041-1.6
		C157,357.997,157,338.509,157,319.022c0-0.178,0.011-0.357-0.002-0.534c-0.188-2.497,0.877-4.215,4.219-4.129
		c2.49,0.062,4.982,0.022,7.474,0.021c17.174-0.003,34.348-0.009,51.522-0.009c0.888,0,1.789-0.029,2.661,0.103
		c1.665,0.253,2.484,1.159,2.663,2.844c0.075,0.706,0.057,1.422,0.057,2.133c0.002,19.131,0.003,38.263,0,57.395
		c0,0.8,0.015,1.607-0.08,2.398c-0.181,1.507-1.054,2.444-2.536,2.678c-0.785,0.123-1.596,0.089-2.396,0.09
		C210.793,382.017,201.005,382.015,191.217,382.015z"/>
</g>
</svg>
