<?xml version="1.0" encoding="utf-8"?>
<!-- Generator: Adobe Illustrator 16.0.0, SVG Export Plug-In . SVG Version: 6.00 Build 0)  -->
<!DOCTYPE svg PUBLIC "-//W3C//DTD SVG 1.1//EN" "http://www.w3.org/Graphics/SVG/1.1/DTD/svg11.dtd">
<svg version="1.1" xmlns="http://www.w3.org/2000/svg" xmlns:xlink="http://www.w3.org/1999/xlink" x="0px" y="0px"
	 width="29.634px" height="59.463px" viewBox="0 0 29.634 59.463" enable-background="new 0 0 29.634 59.463" xml:space="preserve">
<g id="Layer_1">
</g>
<g id="Layer_2">
	<path fill-rule="evenodd" clip-rule="evenodd" d="M17.595,17.947c0-2.275,0-4.051,0-5.987c-5.836,0-11.591,0-17.595,0
		C0,7.927,0,4.043,0,0c9.667,0,19.398,0,29.303,0c-0.047-0.049,0.088,0.058,0.174,0.195c0.079,0.126,0.151,0.285,0.151,0.43
		c0.008,9.587,0.006,19.172,0.006,28.931c-9.877,0-19.604,0-29.67,0c-0.446-1.672-0.153-3.622-0.202-5.533
		c-0.049-1.966-0.01-3.936-0.01-6.075C5.646,17.947,11.398,17.947,17.595,17.947z"/>
	<circle cx="26.617" cy="56.651" r="2.958"/>
</g>
</svg>
