<?xml version="1.0" encoding="utf-8"?>
<!-- Generator: Adobe Illustrator 16.0.0, SVG Export Plug-In . SVG Version: 6.00 Build 0)  -->
<!DOCTYPE svg PUBLIC "-//W3C//DTD SVG 1.1//EN" "http://www.w3.org/Graphics/SVG/1.1/DTD/svg11.dtd">
<svg version="1.1" xmlns="http://www.w3.org/2000/svg" xmlns:xlink="http://www.w3.org/1999/xlink" x="0px" y="0px"
	 width="29.649px" height="59.562px" viewBox="0 0 29.649 59.562" enable-background="new 0 0 29.649 59.562" xml:space="preserve">
<g id="Layer_1">
</g>
<g id="Layer_2">
	<path fill-rule="evenodd" clip-rule="evenodd" d="M-0.029,53.409c0-3.946,0-7.716,0-11.66c5.86,0,11.625,0,17.607,0
		c0-2.061,0-3.956,0-6.036c-5.804,0-11.568,0-17.519,0c0-5.928,0-11.688,0-17.662C-0.023,18.143,0.068,18,0.196,17.907
		c0.121-0.088,0.279-0.174,0.422-0.174c5.62-0.009,11.24-0.007,17.02-0.007c0-1.942,0-3.726,0-5.861c-5.74,0-11.628,0-17.638,0
		C0,7.747,0,3.977,0,0c9.819,0,19.684,0,29.649,0c0,17.805,0,35.52,0,53.409C19.862,53.409,10.114,53.409-0.029,53.409z"/>
	<circle cx="26.839" cy="56.667" r="2.958"/>
</g>
</svg>
