<?xml version="1.0" encoding="utf-8"?>
<!-- Generator: Adobe Illustrator 16.0.0, SVG Export Plug-In . SVG Version: 6.00 Build 0)  -->
<!DOCTYPE svg PUBLIC "-//W3C//DTD SVG 1.1//EN" "http://www.w3.org/Graphics/SVG/1.1/DTD/svg11.dtd">
<svg version="1.1" xmlns="http://www.w3.org/2000/svg" xmlns:xlink="http://www.w3.org/1999/xlink" x="0px" y="0px"
	 width="29.579px" height="59.157px" viewBox="0 0 29.579 59.157" enable-background="new 0 0 29.579 59.157" xml:space="preserve">
<g id="Layer_1">
</g>
<g id="Layer_2">
	<path fill-rule="evenodd" clip-rule="evenodd" d="M24.764,29.362c0,7.911,0,15.651,0,23.564c-3.831,0-7.596,0-11.567,0
		c0.067,0.076-0.06-0.036-0.144-0.174c-0.078-0.128-0.156-0.285-0.156-0.43c-0.008-7.596-0.007-15.192-0.007-22.961
		C16.801,29.362,20.564,29.362,24.764,29.362z"/>
	<path fill-rule="evenodd" clip-rule="evenodd" d="M24.672,23.126c-3.913,0-7.676,0-11.61,0c0-7.801,0-15.538,0-23.71
		c1.713-0.034,3.627-0.086,5.541-0.104c1.967-0.019,3.935-0.004,6.069-0.004C24.672,7.197,24.672,14.935,24.672,23.126z"/>
	<circle cx="26.647" cy="56.115" r="2.958"/>
</g>
</svg>
