<?xml version="1.0" encoding="utf-8"?>
<!-- Generator: Adobe Illustrator 16.0.0, SVG Export Plug-In . SVG Version: 6.00 Build 0)  -->
<!DOCTYPE svg PUBLIC "-//W3C//DTD SVG 1.1//EN" "http://www.w3.org/Graphics/SVG/1.1/DTD/svg11.dtd">
<svg version="1.1" xmlns="http://www.w3.org/2000/svg" xmlns:xlink="http://www.w3.org/1999/xlink" x="0px" y="0px"
	 width="29.456px" height="59.531px" viewBox="0 0 29.456 59.531" enable-background="new 0 0 29.456 59.531" xml:space="preserve">
<g id="Layer_1">
</g>
<g id="Layer_2">
	<path fill-rule="evenodd" clip-rule="evenodd" d="M0,23.908C0,15.658,0,7.914,0,0c9.798,0,19.528,0,29.453,0
		c-0.073-0.064,0.069,0.024,0.163,0.152c0.088,0.12,0.177,0.277,0.177,0.419C29.801,14.143,29.8,27.713,29.8,41.473
		c-9.966,0-19.816,0-29.775,0c0-3.854,0-7.621,0-11.727c5.881,0,11.761,0,17.726,0c0-2.112,0-3.888,0-5.838
		C11.949,23.908,6.196,23.908,0,23.908z"/>
	<circle cx="26.498" cy="56.573" r="2.958"/>
</g>
</svg>
