<?xml version="1.0" encoding="utf-8"?>
<!-- Generator: Adobe Illustrator 16.0.0, SVG Export Plug-In . SVG Version: 6.00 Build 0)  -->
<!DOCTYPE svg PUBLIC "-//W3C//DTD SVG 1.1//EN" "http://www.w3.org/Graphics/SVG/1.1/DTD/svg11.dtd">
<svg version="1.1" xmlns="http://www.w3.org/2000/svg" xmlns:xlink="http://www.w3.org/1999/xlink" x="0px" y="0px"
	 width="29.493px" height="59.473px" viewBox="0 0 29.493 59.473" enable-background="new 0 0 29.493 59.473" xml:space="preserve">
<g id="Layer_1">
</g>
<g id="Layer_2">
	<path fill-rule="evenodd" clip-rule="evenodd" d="M0.015,23.671c5.925,0,11.683,0,17.601,0c0-3.925,0-7.693,0-11.803
		c-5.71,0-11.59,0-17.615,0C0,7.767,0,3.999,0,0c9.733,0,19.586,0,29.586,0c0,17.668,0,35.361,0,53.214
		c0.036-0.035-0.069,0.101-0.207,0.188c-0.125,0.079-0.286,0.148-0.43,0.148c-9.591,0.009-19.181,0.007-28.935,0.007
		C0.015,43.661,0.015,33.928,0.015,23.671z"/>
	<circle cx="26.535" cy="56.579" r="2.958"/>
</g>
</svg>
