<?xml version="1.0" encoding="utf-8"?>
<!-- Generator: Adobe Illustrator 16.0.0, SVG Export Plug-In . SVG Version: 6.00 Build 0)  -->
<!DOCTYPE svg PUBLIC "-//W3C//DTD SVG 1.1//EN" "http://www.w3.org/Graphics/SVG/1.1/DTD/svg11.dtd">
<svg version="1.1" xmlns="http://www.w3.org/2000/svg" xmlns:xlink="http://www.w3.org/1999/xlink" x="0px" y="0px"
	 width="29.404px" height="59.468px" viewBox="0 0 29.404 59.468" enable-background="new 0 0 29.404 59.468" xml:space="preserve">
<g id="Layer_1">
</g>
<g id="Layer_2">
	<path fill-rule="evenodd" clip-rule="evenodd" d="M29.592,53.474c-9.924,0-19.658,0-29.562,0c0-3.837,0-7.606,0-11.871
		c2.726-0.005,5.649-0.002,8.572-0.002c2.959-0.002,5.917,0,9.03,0c0-1.948,0-3.729,0-5.853c-5.736,0-11.618,0-17.632,0
		C0,23.686,0,11.96,0,0c9.735,0,19.587,0,29.592,0C29.592,17.653,29.592,35.347,29.592,53.474z"/>
	<circle cx="26.446" cy="56.51" r="2.958"/>
</g>
</svg>
