<?xml version="1.0" encoding="utf-8"?>
<!-- Generator: Adobe Illustrator 16.0.0, SVG Export Plug-In . SVG Version: 6.00 Build 0)  -->
<!DOCTYPE svg PUBLIC "-//W3C//DTD SVG 1.1//EN" "http://www.w3.org/Graphics/SVG/1.1/DTD/svg11.dtd">
<svg version="1.1" xmlns="http://www.w3.org/2000/svg" xmlns:xlink="http://www.w3.org/1999/xlink" x="0px" y="0px"
	 width="29.796px" height="59.536px" viewBox="0 0 29.796 59.536" enable-background="new 0 0 29.796 59.536" xml:space="preserve">
<g id="Layer_1">
</g>
<g id="Layer_2">
	<path fill-rule="evenodd" clip-rule="evenodd" d="M29.796,0c0,17.846,0,35.533,0,53.422c-3.89,0-7.771,0-11.817,0
		c0-5.838,0-11.594,0-17.685c-6.028,0-11.906,0-17.877,0c0-6.092,0-11.846,0-17.938c5.885,0,11.764,0,17.73,0
		c0-2.112,0-3.888,0-5.839c-5.794,0-11.546,0-17.716,0c-0.04-2.063-0.093-3.98-0.112-5.897C-0.015,4.099,0,2.132,0,0
		C9.889,0,19.617,0,29.796,0z"/>
	<circle cx="26.799" cy="56.703" r="2.958"/>
</g>
</svg>
