<?xml version="1.0" encoding="utf-8"?>
<!-- Generator: Adobe Illustrator 16.0.0, SVG Export Plug-In . SVG Version: 6.00 Build 0)  -->
<!DOCTYPE svg PUBLIC "-//W3C//DTD SVG 1.1//EN" "http://www.w3.org/Graphics/SVG/1.1/DTD/svg11.dtd">
<svg version="1.1" xmlns="http://www.w3.org/2000/svg" xmlns:xlink="http://www.w3.org/1999/xlink" x="0px" y="0px"
	 width="29.543px" height="59.708px" viewBox="0 0 29.543 59.708" enable-background="new 0 0 29.543 59.708" xml:space="preserve">
<g id="Layer_1">
</g>
<g id="Layer_2">
	<path fill-rule="evenodd" clip-rule="evenodd" d="M0,7.012c5.88,0,11.636,0,17.573,0c0-2.252,0-4.362,0-6.892
		c2.071-0.04,3.987-0.092,5.904-0.111c1.967-0.019,3.934-0.004,6.065-0.004c0,17.969,0,35.774,0,53.685c-3.886,0-7.649,0-11.601,0
		c0-2.112,0-4.222,0-6.125c-0.293-0.327-0.386-0.47-0.514-0.563c-0.12-0.086-0.278-0.174-0.42-0.174
		C11.396,46.82,5.784,46.821,0,46.821C0,33.505,0,20.34,0,7.012z"/>
	<circle cx="26.528" cy="56.812" r="2.958"/>
</g>
</svg>
