<?xml version="1.0" encoding="utf-8"?>
<!-- Generator: Adobe Illustrator 16.0.0, SVG Export Plug-In . SVG Version: 6.00 Build 0)  -->
<!DOCTYPE svg PUBLIC "-//W3C//DTD SVG 1.1//EN" "http://www.w3.org/Graphics/SVG/1.1/DTD/svg11.dtd">
<svg version="1.1" id="Layer_1" xmlns="http://www.w3.org/2000/svg" xmlns:xlink="http://www.w3.org/1999/xlink" x="0px" y="0px"
	 width="16.271px" height="29.423px" viewBox="0 0 16.271 29.423" enable-background="new 0 0 16.271 29.423" xml:space="preserve">
<path fill-rule="evenodd" clip-rule="evenodd" d="M11.699,19.7c1.154,0.468,1.899,0.77,2.882,1.168
	c-2.534,1.104-4.903,2.137-7.68,3.345c0-6.561,0-12.947,0-19.511c-1.1-0.275-1.867-0.467-3.15-0.788
	C6.452,2.583,8.792,1.431,11.699,0C11.699,6.921,11.699,13.345,11.699,19.7z"/>
<path fill-rule="evenodd" clip-rule="evenodd" d="M4.965,25.484c3.974,1.384,7.138,2.486,11.307,3.939c-5.627,0-10.304,0-16.271,0
	C2.387,27.53,3.822,26.39,4.965,25.484z"/>
</svg>
