<?xml version="1.0" encoding="utf-8"?>
<!-- Generator: Adobe Illustrator 16.0.0, SVG Export Plug-In . SVG Version: 6.00 Build 0)  -->
<!DOCTYPE svg PUBLIC "-//W3C//DTD SVG 1.1//EN" "http://www.w3.org/Graphics/SVG/1.1/DTD/svg11.dtd">
<svg version="1.1" id="Layer_1" xmlns="http://www.w3.org/2000/svg" xmlns:xlink="http://www.w3.org/1999/xlink" x="0px" y="0px"
	 width="21.768px" height="26.469px" viewBox="0 0 21.768 26.469" enable-background="new 0 0 21.768 26.469" xml:space="preserve">
<path fill-rule="evenodd" clip-rule="evenodd" d="M18.966,0c0,5.272,0,10.546,0,15.872c1.035,0.493,1.854,0.883,2.802,1.334
	c-2.519,1.078-4.919,2.105-7.726,3.306c0-3.304,0-6.399,0-10.107c-3.283,3.058-6.053,5.633-8.728,8.123
	c-2.934-0.21-2.934-0.21-5.314-2.628C8.578,13.275,15.424,8.699,18.966,0z"/>
<path fill-rule="evenodd" clip-rule="evenodd" d="M3.667,26.469c1.64-1.559,2.817-2.678,3.943-3.747
	c3.486,1.211,6.822,2.371,10.78,3.747C13.301,26.469,8.784,26.469,3.667,26.469z"/>
</svg>
