<?xml version="1.0" encoding="utf-8"?>
<!-- Generator: Adobe Illustrator 16.0.0, SVG Export Plug-In . SVG Version: 6.00 Build 0)  -->
<!DOCTYPE svg PUBLIC "-//W3C//DTD SVG 1.1//EN" "http://www.w3.org/Graphics/SVG/1.1/DTD/svg11.dtd">
<svg version="1.1" id="Layer_1" xmlns="http://www.w3.org/2000/svg" xmlns:xlink="http://www.w3.org/1999/xlink" x="0px" y="0px"
	 width="23.479px" height="28.672px" viewBox="0 0 23.479 28.672" enable-background="new 0 0 23.479 28.672" xml:space="preserve">
<path fill-rule="evenodd" clip-rule="evenodd" d="M21.782,0c0,5.95,0,11.9,0,17.771c0.695,0.468,1.215,0.817,1.697,1.142
	c-5.6,2.618-11.39,4.358-17.576,2.306C3.814,20.525,1.186,20.527,0,17.646C9.628,14.8,16.946,9.091,21.782,0z M8.564,17.402
	c2.497,2.146,4.767,2.373,7.24,1.679c0-2.594,0-4.98,0-7.757C13.283,13.44,11.088,15.284,8.564,17.402z"/>
<path fill-rule="evenodd" clip-rule="evenodd" d="M5.37,27.856c1.636-1.333,2.956-2.41,4.059-3.308
	c3.508,1.23,6.707,2.354,9.522,3.342C14.912,28.916,11.822,28.961,5.37,27.856z"/>
</svg>
