<?xml version="1.0" encoding="utf-8"?>
<!-- Generator: Adobe Illustrator 16.0.0, SVG Export Plug-In . SVG Version: 6.00 Build 0)  -->
<!DOCTYPE svg PUBLIC "-//W3C//DTD SVG 1.1//EN" "http://www.w3.org/Graphics/SVG/1.1/DTD/svg11.dtd">
<svg version="1.1" id="Layer_1" xmlns="http://www.w3.org/2000/svg" xmlns:xlink="http://www.w3.org/1999/xlink" x="0px" y="0px"
	 width="23.71px" height="32.557px" viewBox="0 0 23.71 32.557" enable-background="new 0 0 23.71 32.557" xml:space="preserve">
<path fill-rule="evenodd" clip-rule="evenodd" d="M22.07,0c2.664,2.835,1.591,5.25,0.224,7.926
	c-8.593,2.452-15.68,7.09-19.459,16.833c0-6.083,0-11.366,0-16.706C1.775,7.538,0.952,7.139,0,6.676
	c2.503-1.074,4.912-2.107,7.693-3.301c0,3.298,0,6.407,0,9.979C13.445,9.458,18.718,5.894,22.07,0z"/>
<path fill-rule="evenodd" clip-rule="evenodd" d="M17.468,31.964c-4.491,0.69-8.973,0.889-13.716-0.012
	c0.457-2.098,2.644-2.275,3.429-3.567C10.708,29.611,14.05,30.774,17.468,31.964z"/>
</svg>
