<?xml version="1.0" encoding="utf-8"?>
<!-- Generator: Adobe Illustrator 16.0.0, SVG Export Plug-In . SVG Version: 6.00 Build 0)  -->
<!DOCTYPE svg PUBLIC "-//W3C//DTD SVG 1.1//EN" "http://www.w3.org/Graphics/SVG/1.1/DTD/svg11.dtd">
<svg version="1.1" id="Layer_1" xmlns="http://www.w3.org/2000/svg" xmlns:xlink="http://www.w3.org/1999/xlink" x="0px" y="0px"
	 width="22.954px" height="26.162px" viewBox="0 0 22.954 26.162" enable-background="new 0 0 22.954 26.162" xml:space="preserve">
<path fill-rule="evenodd" clip-rule="evenodd" d="M21.541,4.153c-1.138,1.915-2.469,3.742-3.373,5.761
	c-2.094,4.67-3.979,9.434-6.063,14.438c-1.675-5.688-0.897-12.02-4.781-17.197C4.2,11.882,4.906,17.029,4.182,22.183
	c-0.939-2.185-1.881-4.37-2.678-6.221c3.77-10.36,4.798-11.849,9.2-13.276c2.262,2.614,1.233,6.234,2.622,9.486
	c1.662-1.07,2.482-2.641,3.453-4.077c1.223-1.814,2.591-3.457,4.917-3.882L21.541,4.153z"/>
<path fill-rule="evenodd" clip-rule="evenodd" d="M21.696,4.213c0.016-0.264,0.032-0.527,0.048-0.792
	c-0.068,0.244-0.136,0.488-0.203,0.732L21.696,4.213z"/>
</svg>
