<?xml version="1.0" encoding="utf-8"?>
<!-- Generator: Adobe Illustrator 16.0.0, SVG Export Plug-In . SVG Version: 6.00 Build 0)  -->
<!DOCTYPE svg PUBLIC "-//W3C//DTD SVG 1.1//EN" "http://www.w3.org/Graphics/SVG/1.1/DTD/svg11.dtd">
<svg version="1.1" id="Layer_1" xmlns="http://www.w3.org/2000/svg" xmlns:xlink="http://www.w3.org/1999/xlink" x="0px" y="0px"
	 width="22.954px" height="26.162px" viewBox="0 0 22.954 26.162" enable-background="new 0 0 22.954 26.162" xml:space="preserve">
<path fill-rule="evenodd" clip-rule="evenodd" d="M15.957,24.067c-1.23-2.691-2.462-5.383-3.851-8.42
	c-2.938,2.43-2.637,6.002-4.502,8.573c-1.745-1.55-0.626-3.792-1.527-5.496c2.257-5.488,5.614-10.201,9.28-14.694
	c0.639-0.783,1.877-1.076,3.061-1.716c-1.656,2.303-3.088,4.295-4.659,6.483c0.687,2.527,1.471,5.039,2.033,7.597
	c0.552,2.511,1.308,5.07-0.017,7.598L15.957,24.067z"/>
<path fill-rule="evenodd" clip-rule="evenodd" d="M15.775,23.992c-0.014,0.298-0.028,0.595-0.015,0.313
	c-0.142,0.171,0.027-0.034,0.196-0.238L15.775,23.992z"/>
</svg>
