<?xml version="1.0" encoding="utf-8"?>
<!-- Generator: Adobe Illustrator 16.0.0, SVG Export Plug-In . SVG Version: 6.00 Build 0)  -->
<!DOCTYPE svg PUBLIC "-//W3C//DTD SVG 1.1//EN" "http://www.w3.org/Graphics/SVG/1.1/DTD/svg11.dtd">
<svg version="1.1" id="Layer_1" xmlns="http://www.w3.org/2000/svg" xmlns:xlink="http://www.w3.org/1999/xlink" x="0px" y="0px"
	 width="120.174px" height="31.311px" viewBox="0 0 120.174 31.311" enable-background="new 0 0 120.174 31.311"
	 xml:space="preserve">
<path fill-rule="evenodd" clip-rule="evenodd" d="M64.205,30.77c-0.287-3.09-0.576-6.181-0.874-9.382
	c-1.242-1.259-2.469-2.502-3.761-3.812c-2.032,0.871-3.801,1.406-5.34,2.326c-8.693,5.201-18.216,6.197-28.066,5.9
	c-4.944-0.149-9.902-0.081-14.846,0.103c-2.111,0.079-4.202,0.702-6.457,1.105C3.508,28.207,2.056,29.491,0,31.311
	c0.086-2.477,1.03-3.981,1.836-5.395c3.881-6.812,8.523-12.957,15.372-17.15c3.521-2.155,7.364-2.937,11.376-2.96
	C43.111,5.719,57.64,5.709,72.167,5.678c10.232-0.021,20.464,0.055,30.694-0.085c4.103-0.055,8.198-0.574,12.102-0.866
	c1.814-1.646,3.355-3.043,5.211-4.726c-0.839,4.291-2.843,6.647-6.824,8.521c-3.689,1.735-7.628,1.955-11.604,1.994
	c-12.208,0.118-24.416,0.24-37.096,0.365c0.439,2.134,0.69,4.211,1.312,6.171c1.028,3.245,1.081,6.535,0.618,9.811
	c-0.213,1.512-0.325,3.457-2.499,3.862L64.205,30.77z M6.92,22.185c1.282-0.026,2.32,0.197,3.168-0.108
	c3.354-1.211,6.797-1.122,10.281-1.166c11.025-0.138,22.11,0.579,32.994-1.961c2.75-2.681,7.015-3.633,8.803-7.748
	c-0.739-0.158-1.366-0.405-1.995-0.409c-11.563-0.068-23.128-0.198-34.69-0.075c-2.405,0.026-4.871,0.814-7.188,1.606
	C13.347,14.016,10.34,18.062,6.92,22.185z"/>
</svg>
