<?xml version="1.0" encoding="utf-8"?>
<!-- Generator: Adobe Illustrator 16.0.0, SVG Export Plug-In . SVG Version: 6.00 Build 0)  -->
<!DOCTYPE svg PUBLIC "-//W3C//DTD SVG 1.1//EN" "http://www.w3.org/Graphics/SVG/1.1/DTD/svg11.dtd">
<svg version="1.1" id="Layer_1" xmlns="http://www.w3.org/2000/svg" xmlns:xlink="http://www.w3.org/1999/xlink" x="0px" y="0px"
	 width="119.924px" height="30.311px" viewBox="0 0 119.924 30.311" enable-background="new 0 0 119.924 30.311"
	 xml:space="preserve">
<path fill-rule="evenodd" clip-rule="evenodd" d="M50.584,18.385c5.463-2.677,6.17-9.447,10.779-13.238
	c4.721-0.044,9.662-0.091,14.609-0.138c1.543-1.255,3.067-2.496,4.834-3.935c0.748,1.271,1.469,2.495,2.367,4.022
	c8.555-0.027,17.289,0.058,26.019-0.13c4.067-0.088,7.89-1.177,10.731-4.966c-0.082,0.804,0.09,1.758-0.285,2.388
	c-2.679,4.505-7.086,6.591-11.955,7.025c-7.381,0.658-14.824,0.632-22.762,0.915c-1.095,0.842-2.653,2.041-4.48,3.447
	c-0.728-1.137-1.469-2.292-2.301-3.595c-3.879,0.031-7.836,0.233-11.775,0.047c-3.576-0.168-6.006,1.29-7.822,4.225
	c-1.218,1.97-2.503,3.908-3.899,5.753c-0.968,1.276-2.177,2.369-3.247,3.51c-5.046-0.836-9.311-2.5-13.12-5.307
	c-2.534-1.868-5.056-3.752-7.571-5.645c-3.782-2.845-7.881-3.449-12.142-1.37c-4.993,2.437-8.698,6.351-12.596,11.416
	c14.947-7.967,25.661-4.888,28.532,1.893c-2.293-1.109-4.419-2.455-6.738-3.194c-4.295-1.369-8.576-0.309-12.6,1.191
	c-3.068,1.144-5.855,3.026-8.793,4.532C4.466,28.21,2.516,29.101,0,30.311c0.87-4.473,3.325-7.367,5.371-10.385
	c4.265-6.29,9.559-11.269,17.084-13.738c4.441-1.457,8.118-0.873,11.626,1.89c2.079,1.638,4.124,3.329,6.084,5.106
	C43.075,15.823,46.466,17.427,50.584,18.385z"/>
</svg>
