<?xml version="1.0" encoding="utf-8"?>
<!-- Generator: Adobe Illustrator 16.0.0, SVG Export Plug-In . SVG Version: 6.00 Build 0)  -->
<!DOCTYPE svg PUBLIC "-//W3C//DTD SVG 1.1//EN" "http://www.w3.org/Graphics/SVG/1.1/DTD/svg11.dtd">
<svg version="1.1" id="Layer_1" xmlns="http://www.w3.org/2000/svg" xmlns:xlink="http://www.w3.org/1999/xlink" x="0px" y="0px"
	 width="110.37px" height="16.278px" viewBox="0 0 110.37 16.278" enable-background="new 0 0 110.37 16.278" xml:space="preserve">
<path fill-rule="evenodd" clip-rule="evenodd" d="M110.37,0c-1.434,5.782-5.423,7.634-9.345,9.176
	c-2.389,0.939-5.17,1.202-7.775,1.211c-24.94,0.098-49.881,0.074-74.822,0.093c-1.993,0.002-4.01-0.115-5.979,0.125
	C8.522,11.084,4.513,11.5,1.857,15.093C1.654,15.368,1.022,15.326,0,15.575c1.357-4.154,4.234-6.267,7.478-7.69
	c3.783-1.661,7.873-2.313,12.05-2.315c24.941-0.009,49.884-0.045,74.825-0.078c1.828-0.002,3.661,0.02,5.485-0.086
	c3.416-0.196,6.5-1.1,8.473-4.249C108.526,0.813,109.1,0.694,110.37,0z"/>
</svg>
