<?xml version="1.0" encoding="utf-8"?>
<!-- Generator: Adobe Illustrator 16.0.0, SVG Export Plug-In . SVG Version: 6.00 Build 0)  -->
<!DOCTYPE svg PUBLIC "-//W3C//DTD SVG 1.1//EN" "http://www.w3.org/Graphics/SVG/1.1/DTD/svg11.dtd">
<svg version="1.1" id="Layer_1" xmlns="http://www.w3.org/2000/svg" xmlns:xlink="http://www.w3.org/1999/xlink" x="0px" y="0px"
	 width="120.921px" height="30.962px" viewBox="0 0 120.921 30.962" enable-background="new 0 0 120.921 30.962"
	 xml:space="preserve">
<path fill-rule="evenodd" clip-rule="evenodd" d="M115.606,4.217c2.141-1.479,2.497-4.133,5.314-4.217
	c-2.083,5.313-5.79,8.402-10.981,9.154c-5.032,0.728-10.168,0.873-15.266,0.975c-10.559,0.212-21.123,0.228-31.426,0.32
	c-2.58,2.841-4.807,5.744-7.487,8.139c-4.466,3.99-9.989,5.821-15.889,6.167c-6.743,0.396-13.505,0.586-20.259,0.586
	c-4.793,0-9.583-0.448-14.312,1.037C3.737,27.729,2.172,29.084,0,30.962c0.718-3.835,2.376-6.268,3.968-8.705
	c3.362-5.147,7.167-9.747,12.486-13.212c3.837-2.5,7.801-3.611,12.11-3.635c24.926-0.138,49.853-0.101,74.78-0.239
	C107.434,5.149,111.519,4.549,115.606,4.217z M6.603,22.28c6.988-1.771,12.876-2.14,18.827-1.769
	c6.272,0.39,12.555,0.435,18.745-0.82c6.145-1.246,12.054-3.031,15.841-8.78c-0.524-0.246-0.822-0.507-1.123-0.51
	c-11.067-0.079-22.135-0.159-33.202-0.179c-2.673-0.005-5.186,0.691-7.678,1.766C13.385,13.984,10.467,17.752,6.603,22.28z"/>
</svg>
