<?xml version="1.0" encoding="utf-8"?>
<!-- Generator: Adobe Illustrator 16.0.0, SVG Export Plug-In . SVG Version: 6.00 Build 0)  -->
<!DOCTYPE svg PUBLIC "-//W3C//DTD SVG 1.1//EN" "http://www.w3.org/Graphics/SVG/1.1/DTD/svg11.dtd">
<svg version="1.1" id="Layer_1" xmlns="http://www.w3.org/2000/svg" xmlns:xlink="http://www.w3.org/1999/xlink" x="0px" y="0px"
	 width="120.281px" height="31.292px" viewBox="0 0 120.281 31.292" enable-background="new 0 0 120.281 31.292"
	 xml:space="preserve">
<path fill-rule="evenodd" clip-rule="evenodd" d="M0,31.292c1.336-5.569,4.248-9.166,6.814-12.894
	c2.939-4.27,6.83-7.695,11.345-10.148c2.551-1.386,5.615-2.485,8.461-2.515c4.189-0.043,7.892-0.485,10.61-4.493
	c1.034,1.654,1.715,2.744,2.435,3.894c0.435,0.134,0.901,0.404,1.367,0.402c11.387-0.042,22.773-0.142,34.16-0.167
	c8.251-0.021,16.504,0.041,24.755,0.08c5.275,0.024,10.56,0.179,15.912-1.528c1.347-1.194,2.884-2.558,4.422-3.921
	c-1.384,5.517-5.07,8.319-10.235,9.451c-5.05,1.108-10.169,0.91-15.279,0.951c-10.561,0.083-21.119,0.188-31.432,0.282
	c-2.573,2.832-4.796,5.734-7.475,8.126c-4.465,3.986-9.982,5.832-15.88,6.18c-6.74,0.396-13.502,0.603-20.252,0.571
	c-4.799-0.022-9.57-0.248-14.957,1.581C3.844,27.949,2.28,29.308,0,31.292z M7.307,22.291c6.137-1.68,11.971-1.886,17.82-1.562
	c6.43,0.355,12.857,0.467,19.187-0.816c6.105-1.237,12.028-2.999,16.026-9.172c-6.052-0.078-11.626-0.244-17.195-0.146
	c-1.195,0.021-2.418,0.921-3.545,1.565c-0.83,0.475-1.522,1.191-2.503,1.983c-0.802-1.239-1.487-2.299-1.983-3.066
	C23.637,9.02,14.099,11.364,7.307,22.291z"/>
</svg>
