<?xml version="1.0" encoding="utf-8"?>
<!-- Generator: Adobe Illustrator 16.0.0, SVG Export Plug-In . SVG Version: 6.00 Build 0)  -->
<!DOCTYPE svg PUBLIC "-//W3C//DTD SVG 1.1//EN" "http://www.w3.org/Graphics/SVG/1.1/DTD/svg11.dtd">
<svg version="1.1" id="Layer_1" xmlns="http://www.w3.org/2000/svg" xmlns:xlink="http://www.w3.org/1999/xlink" x="0px" y="0px"
	 width="120.366px" height="29.979px" viewBox="0 0 120.366 29.979" enable-background="new 0 0 120.366 29.979"
	 xml:space="preserve">
<path fill-rule="evenodd" clip-rule="evenodd" d="M67.332,4.544c-2.035,7.083-8.082,9.937-12.453,14.558
	c7.038,0.619,13.871-0.07,20.687-0.754c11.487-1.156,22.407-4.396,32.647-9.703c3.797-1.967,7.272-4.533,10.221-7.721
	c0.461-0.498,1.096-0.836,1.933-0.924c-1.255,2.295-2.948,4.104-4.966,5.678c-8.771,6.852-18.831,10.883-29.449,13.836
	c-14.435,4.016-29.165,5.154-44.057,4.965c-0.307-0.004-0.61-0.234-1.385-0.551c3.901-1.844,7.71-3.232,11.066-5.342
	c3.424-2.152,7.157-4.24,8.849-8.92c-3.132-0.072-6.206-0.168-9.28-0.206c-1.814-0.022-3.636,0.146-5.443,0.044
	c-2.806-0.16-5.248,0.447-7.188,2.625c-0.42,0.471-1.05,0.756-1.882,1.336c-0.839-1.322-1.59-2.508-2.348-3.701
	c-15.098-1.33-19.84,1.739-27.857,12.939c0.847-0.303,1.598-0.363,2.043-0.764c3.705-3.334,8.421-3.633,12.956-4.119
	c4.844-0.52,9.117,1.244,12.659,4.629c0.346,0.328,0.615,0.77,0.816,1.205c0.124,0.27,0.053,0.631,0.084,1.242
	c-7.047-5.68-14.423-4.842-21.871-1.394c-2.236,1.036-4.274,2.489-6.479,3.603C4.738,28.062,2.736,28.805,0,29.979
	c3.764-8.539,8.277-15.422,15.252-20.617c4.443-3.309,9.275-4.816,14.781-4.783c1.501,0.012,3.053-0.938,4.498-1.621
	c0.836-0.396,1.506-1.143,2.531-1.953c0.727,1.182,1.305,2.121,2.158,3.51C48.292,4.523,57.646,4.534,67.332,4.544z"/>
</svg>
