<?xml version="1.0" encoding="utf-8"?>
<!-- Generator: Adobe Illustrator 16.0.0, SVG Export Plug-In . SVG Version: 6.00 Build 0)  -->
<!DOCTYPE svg PUBLIC "-//W3C//DTD SVG 1.1//EN" "http://www.w3.org/Graphics/SVG/1.1/DTD/svg11.dtd">
<svg version="1.1" id="Layer_1" xmlns="http://www.w3.org/2000/svg" xmlns:xlink="http://www.w3.org/1999/xlink" x="0px" y="0px"
	 width="119.992px" height="30.077px" viewBox="0 0 119.992 30.077" enable-background="new 0 0 119.992 30.077"
	 xml:space="preserve">
<path fill-rule="evenodd" clip-rule="evenodd" d="M119.992,0.521c-1.123,1.363-2.092,2.898-3.397,4.055
	c-5.311,4.71-10.935,9.052-17.284,12.262c-7.644,3.866-15.877,5.4-24.421,5.603c-8.723,0.207-17.145-1.277-25.345-4.113
	c-6.126-2.118-12.332-4.077-18.263-6.655c-7.668-3.334-13.867-1.13-19.5,4.141c-1.671,1.562-3.038,3.448-4.763,5.437
	c3.95-1.129,7.513-2.28,11.143-3.151c4.175-1.003,8.218-0.42,12.029,1.637c2.4,1.295,3.067,2.023,4.504,5.493
	c-6.54-6.057-13.437-5.383-20.435-2.219c-3.454,1.561-6.723,3.531-10.1,5.266C2.999,28.875,1.76,29.322,0,30.077
	c0.513-1.534,0.733-2.602,1.205-3.544c3.841-7.678,8.9-14.388,16.407-18.78c4.539-2.656,9.446-3.74,14.735-1.666
	c6.809,2.67,13.679,5.193,20.601,7.551c10.778,3.671,21.788,5.364,33.22,3.737c6.655-0.949,12.804-3.103,19.461-6.673
	c-8.47-1.175-16.197-0.912-23.874-1.178c-7.73-0.269-15.464,0.202-23.43,1.354c0.732-0.679,1.359-1.729,2.218-1.979
	c6.818-1.982,13.786-3.287,20.892-3.445c7.426-0.168,14.863-0.228,22.283,0.023c5.445,0.183,10.039-1.473,14.14-4.89
	c0.356-0.297,0.878-0.396,1.322-0.586C119.45,0.174,119.722,0.348,119.992,0.521z"/>
</svg>
