<?xml version="1.0" encoding="utf-8"?>
<!-- Generator: Adobe Illustrator 16.0.0, SVG Export Plug-In . SVG Version: 6.00 Build 0)  -->
<!DOCTYPE svg PUBLIC "-//W3C//DTD SVG 1.1//EN" "http://www.w3.org/Graphics/SVG/1.1/DTD/svg11.dtd">
<svg version="1.1" id="Layer_1" xmlns="http://www.w3.org/2000/svg" xmlns:xlink="http://www.w3.org/1999/xlink" x="0px" y="0px"
	 width="64.186px" height="15.961px" viewBox="0 0 64.186 15.961" enable-background="new 0 0 64.186 15.961" xml:space="preserve">
<path fill-rule="evenodd" clip-rule="evenodd" d="M59.426,4.461C61.424,2.59,62.805,1.295,64.186,0
	c-1.431,6.246-5.812,9.125-11.472,9.775c-5.711,0.656-11.503,0.691-17.265,0.789c-7.587,0.131-15.179-0.033-22.766,0.105
	c-4.395,0.08-8.586,0.936-11.205,5.291c-0.5-0.176-0.963-0.34-1.479-0.521c2.709-6.551,8.274-8.801,14.244-9.357
	c7.857-0.734,15.807-0.518,23.717-0.637c3.466-0.053,6.941,0.24,10.398,0.076C52.126,5.342,55.877,4.816,59.426,4.461z"/>
</svg>
