<?xml version="1.0" encoding="utf-8"?>
<!-- Generator: Adobe Illustrator 16.0.0, SVG Export Plug-In . SVG Version: 6.00 Build 0)  -->
<!DOCTYPE svg PUBLIC "-//W3C//DTD SVG 1.1//EN" "http://www.w3.org/Graphics/SVG/1.1/DTD/svg11.dtd">
<svg version="1.1" id="Layer_1" xmlns="http://www.w3.org/2000/svg" xmlns:xlink="http://www.w3.org/1999/xlink" x="0px" y="0px"
	 width="119.598px" height="29.517px" viewBox="0 0 119.598 29.517" enable-background="new 0 0 119.598 29.517"
	 xml:space="preserve">
<path fill-rule="evenodd" clip-rule="evenodd" d="M3.344,25.917c-1.222,1.316-2.282,2.458-3.344,3.6
	c1.507-6.606,5.147-11.839,9.621-16.436c4.562-4.688,9.856-8.283,17.127-8.557c5.675,1.463,10.786,5.02,16.367,7.541
	c4.993,2.256,9.999,4.535,15.166,6.329c2.415,0.838,5.24,0.894,7.842,0.724c9.207-0.599,18.281-1.798,27.258-4.333
	c7.325-2.068,13.744-5.433,19.713-9.891c1.694-1.266,3.022-3.016,4.558-4.503c0.374-0.363,0.898-0.569,1.946-0.186
	c-1.487,1.598-2.79,3.437-4.496,4.752c-8.61,6.648-18.368,10.87-28.791,13.929c-15.047,4.416-30.41,5.591-45.95,5.463
	c-7.912-0.066-15.82-0.421-23.731-0.458C12.206,23.871,7.681,23.557,3.344,25.917z M8.726,18.534
	c14.375,0.739,31.578,0.574,34.83-0.415c-5.815-2.654-11.317-5.281-16.929-7.649c-1.608-0.68-3.685-1.196-5.284-0.78
	C16.308,10.998,11.856,13.43,8.726,18.534z"/>
</svg>
