<?xml version="1.0" encoding="utf-8"?>
<!-- Generator: Adobe Illustrator 16.0.0, SVG Export Plug-In . SVG Version: 6.00 Build 0)  -->
<!DOCTYPE svg PUBLIC "-//W3C//DTD SVG 1.1//EN" "http://www.w3.org/Graphics/SVG/1.1/DTD/svg11.dtd">
<svg version="1.1" id="Layer_1" xmlns="http://www.w3.org/2000/svg" xmlns:xlink="http://www.w3.org/1999/xlink" x="0px" y="0px"
	 width="119.499px" height="30.344px" viewBox="0 0 119.499 30.344" enable-background="new 0 0 119.499 30.344"
	 xml:space="preserve">
<path fill-rule="evenodd" clip-rule="evenodd" d="M119.499,0.78c-1.977,3.228-5.053,5.41-8.068,7.464
	c-7.998,5.451-16.875,8.97-26.193,11.59c-14.589,4.102-29.481,5.11-44.515,5.122c-2.31,0.003-4.646,0.365-6.923,0.115
	c-4.041-0.446-7.552,0.342-10.484,3.831c-0.892-1.641-1.577-2.903-2.275-4.188c-6.039-0.352-11.979-1.078-17.673,1.737
	C2.358,27.616,1.315,28.823,0,30.344c0.503-4.929,3.838-10.724,9.842-16.842c4.601-4.688,9.828-8.362,17.995-8.375
	c4.359,2.115,9.686,4.808,15.104,7.3c4.975,2.288,9.939,4.689,15.119,6.4c2.878,0.952,6.226,1.021,9.298,0.748
	c7.037-0.629,14.139-1.235,21.024-2.728c9.081-1.969,17.644-5.537,24.973-11.485c1.972-1.599,3.646-3.565,5.456-5.362
	C119.041,0.26,119.271,0.52,119.499,0.78z M43.728,18.84c0.19,0.161,0.381,0.321,0.262,0.222c0.198,0.013-0.072-0.005-0.344-0.022
	c-5.195-2.512-10.314-5.199-15.603-7.492C21.074,8.528,12.624,12.06,9.16,19.245c3.503,0.013,6.952,0.025,10.424,0.038
	c1.337-1.09,2.697-2.203,4.161-3.397c0.803,1.201,1.515,2.266,2.339,3.499C32.003,19.07,37.883,20.175,43.728,18.84z"/>
</svg>
