<?xml version="1.0" encoding="utf-8"?>
<!-- Generator: Adobe Illustrator 16.0.0, SVG Export Plug-In . SVG Version: 6.00 Build 0)  -->
<!DOCTYPE svg PUBLIC "-//W3C//DTD SVG 1.1//EN" "http://www.w3.org/Graphics/SVG/1.1/DTD/svg11.dtd">
<svg version="1.1" id="Layer_1" xmlns="http://www.w3.org/2000/svg" xmlns:xlink="http://www.w3.org/1999/xlink" x="0px" y="0px"
	 width="64.119px" height="15.688px" viewBox="0 0 64.119 15.688" enable-background="new 0 0 64.119 15.688" xml:space="preserve">
<path fill-rule="evenodd" clip-rule="evenodd" d="M23.581,14.818c-1.121-1.863-1.779-2.956-2.363-3.928
	C9.674,9.738,5.867,10.654,0.936,15.688C0.638,15.553,0.339,15.418,0,15.264c0.027-0.25-0.009-0.537,0.093-0.76
	C2.686,8.85,7.995,6.896,13.351,6.047c3.855-0.609,7.574-0.594,10.146-4.582c0.961,1.504,1.56,2.441,2.494,3.902
	C36.89,4.911,48.237,6.531,59.285,4.194C61.029,2.681,62.575,1.34,64.119,0c-1.641,6.176-6.006,9.115-11.766,9.746
	c-5.553,0.606-11.174,0.578-16.766,0.826c-0.33,0.015-0.662-0.004-0.992-0.018C30.549,10.375,26.614,10.541,23.581,14.818z"/>
</svg>
