<?xml version="1.0" encoding="utf-8"?>
<!-- Generator: Adobe Illustrator 16.0.0, SVG Export Plug-In . SVG Version: 6.00 Build 0)  -->
<!DOCTYPE svg PUBLIC "-//W3C//DTD SVG 1.1//EN" "http://www.w3.org/Graphics/SVG/1.1/DTD/svg11.dtd">
<svg version="1.1" id="Layer_1" xmlns="http://www.w3.org/2000/svg" xmlns:xlink="http://www.w3.org/1999/xlink" x="0px" y="0px"
	 width="109.746px" height="15.778px" viewBox="0 0 109.746 15.778" enable-background="new 0 0 109.746 15.778"
	 xml:space="preserve">
<path fill-rule="evenodd" clip-rule="evenodd" d="M105.385,4.036c1.559-1.441,2.96-2.738,4.361-4.036
	c-0.924,5.269-4.405,7.991-9.008,9.164c-3,0.765-6.189,1.058-9.297,1.079c-24.937,0.168-49.873,0.213-74.812,0.32
	c-1.974,0.008-3.947,0.266-5.922,0.293c-3.927,0.055-7.028,1.598-9.269,4.922C0.998,15.614,0.543,15.444,0,15.243
	c2.331-6.064,7.553-8.244,13.127-8.981c6.18-0.817,12.498-0.722,18.758-0.765c18.662-0.131,37.325-0.225,55.988-0.14
	C93.667,5.384,99.419,5.464,105.385,4.036z"/>
</svg>
