<?xml version="1.0" encoding="utf-8"?>
<!-- Generator: Adobe Illustrator 16.0.0, SVG Export Plug-In . SVG Version: 6.00 Build 0)  -->
<!DOCTYPE svg PUBLIC "-//W3C//DTD SVG 1.1//EN" "http://www.w3.org/Graphics/SVG/1.1/DTD/svg11.dtd">
<svg version="1.1" id="Layer_1" xmlns="http://www.w3.org/2000/svg" xmlns:xlink="http://www.w3.org/1999/xlink" x="0px" y="0px"
	 width="109.968px" height="15.9px" viewBox="0 0 109.968 15.9" enable-background="new 0 0 109.968 15.9" xml:space="preserve">
<path fill-rule="evenodd" clip-rule="evenodd" d="M32.051,10.688c-1.512,1.274-3.018,2.544-4.816,4.062
	c-0.79-1.277-1.523-2.461-2.562-4.137c-4.238,0.055-8.838,0.102-13.437,0.179c-4.04,0.069-7.4,1.511-9.755,5.108
	C0.967,15.759,0.491,15.627,0,15.49c2.456-6.386,7.766-8.188,13.359-9.285c3.208-0.631,6.546-0.6,10.247-0.9
	c1.034-0.869,2.408-2.023,3.978-3.342c0.702,1.084,1.396,2.156,2.261,3.492c6.187,0.027,12.434,0.09,18.682,0.074
	c14.03-0.037,28.061-0.193,42.09-0.129c4.969,0.023,9.894,0.059,15.041-1.527c1.249-1.123,2.78-2.498,4.311-3.873
	c-1.351,5.512-4.969,8.531-10.177,9.385c-3.887,0.639-7.859,1.012-11.797,1.051C69.506,10.604,51.018,10.617,32.051,10.688z"/>
</svg>
