<?xml version="1.0" encoding="utf-8"?>
<!-- Generator: Adobe Illustrator 16.0.0, SVG Export Plug-In . SVG Version: 6.00 Build 0)  -->
<!DOCTYPE svg PUBLIC "-//W3C//DTD SVG 1.1//EN" "http://www.w3.org/Graphics/SVG/1.1/DTD/svg11.dtd">
<svg version="1.1" id="Layer_1" xmlns="http://www.w3.org/2000/svg" xmlns:xlink="http://www.w3.org/1999/xlink" x="0px" y="0px"
	 width="119.409px" height="30.78px" viewBox="0 0 119.409 30.78" enable-background="new 0 0 119.409 30.78" xml:space="preserve">
<path fill-rule="evenodd" clip-rule="evenodd" d="M105.25,10.622c-8.377-1.164-16.109-0.889-23.789-1.164
	c-7.737-0.276-15.475,0.248-23.435,1.346c0.757-0.682,1.408-1.734,2.288-1.984c7.317-2.074,14.767-3.405,22.407-3.394
	c7.436,0.013,14.872,0.021,22.308,0.056c4.523,0.021,8.33-1.902,11.962-4.322c0.538-0.357,1.042-0.77,1.583-1.125
	c0.113-0.074,0.318-0.007,0.834,0c-0.587,2.597-2.477,4.104-4.252,5.578c-4.566,3.791-9.317,7.341-14.422,10.391
	c-0.568,0.341-1.196,0.584-1.802,0.861c-5.752,2.642-11.731,4.328-18.06,5.07c-9.713,1.143-19.447,0.816-29.176,0.881
	C39.799,22.896,27.899,22.634,16,22.688c-3.943,0.018-7.995-0.008-11.777,2.438c-1.065,1.427-2.305,3.086-4.218,5.653
	c-0.078-3.032,0.924-4.549,1.738-5.996c3.854-6.854,8.588-13,15.482-17.047c4.75-2.787,9.781-3.812,15.213-1.57
	c9.074,3.747,18.267,7.166,27.793,9.652c8.963,2.338,18.076,2.244,27.106,1.281C93.399,16.456,99.206,14.188,105.25,10.622z
	 M43.214,16.962c0.211,0.182,0.422,0.36,0.635,0.541c0.095-0.183,0.192-0.367,0.299-0.57c-0.341,0.008-0.636,0.016-0.931,0.021
	c-5.334-2.209-10.612-4.57-16.035-6.536c-1.768-0.641-4.045-0.736-5.855-0.235c-5.247,1.451-9.652,4.295-12.501,8.797
	c3.772-0.385,7.506-0.969,11.257-1.105c6.594-0.24,13.197-0.18,19.795-0.314C40.993,17.538,42.102,17.171,43.214,16.962z"/>
</svg>
