<?xml version="1.0" encoding="utf-8"?>
<!-- Generator: Adobe Illustrator 16.0.0, SVG Export Plug-In . SVG Version: 6.00 Build 0)  -->
<!DOCTYPE svg PUBLIC "-//W3C//DTD SVG 1.1//EN" "http://www.w3.org/Graphics/SVG/1.1/DTD/svg11.dtd">
<svg version="1.1" id="Layer_1" xmlns="http://www.w3.org/2000/svg" xmlns:xlink="http://www.w3.org/1999/xlink" x="0px" y="0px"
	 width="22.954px" height="26.162px" viewBox="0 0 22.954 26.162" enable-background="new 0 0 22.954 26.162" xml:space="preserve">
<path fill-rule="evenodd" clip-rule="evenodd" d="M8.416,0c3.467,2.328,3.567,5.91,4.377,9.521c2.202-2.491,4.287-4.851,6.03-6.822
	C21.402,2.47,22.49,3.562,22.6,5.175c0.22,3.256,1.001,6.646-0.825,9.708c-1.771,2.971-3.618,5.903-5.576,8.752
	c-1.234,1.796-1.347,1.729-4.67,2.527c-1.284-1.36-1.499-3.036-1.661-4.92c-0.325-3.758-0.945-7.501-1.639-11.212
	c-0.255-1.355-1.07-2.606-1.881-4.489C2.283,10.674,3.999,16.214,3,21.683c-1.025-2.38-1.9-4.412-3-6.965
	C1.871,9.739,3.294,3.94,8.416,0z M17.288,8.005c-4.349,2.705-4.71,9.508-0.661,13.293C18.901,16.884,20.34,12.634,17.288,8.005z"/>
</svg>
