<?xml version="1.0" encoding="utf-8"?>
<!-- Generator: Adobe Illustrator 16.0.0, SVG Export Plug-In . SVG Version: 6.00 Build 0)  -->
<!DOCTYPE svg PUBLIC "-//W3C//DTD SVG 1.1//EN" "http://www.w3.org/Graphics/SVG/1.1/DTD/svg11.dtd">
<svg version="1.1" id="Layer_1" xmlns="http://www.w3.org/2000/svg" xmlns:xlink="http://www.w3.org/1999/xlink" x="0px" y="0px"
	 width="120.164px" height="29.604px" viewBox="0 0 120.164 29.604" enable-background="new 0 0 120.164 29.604"
	 xml:space="preserve">
<path fill-rule="evenodd" clip-rule="evenodd" d="M5.18,22.941c1.78-0.763,2.66-0.918,3.232-1.422
	c3.897-3.436,8.794-3.593,13.512-3.919c4.486-0.311,8.428,1.516,11.668,4.662c0.533,0.517,0.798,1.312,1.026,2.209
	c-7.16-5.455-14.539-4.613-21.983-1.167c-2.345,1.084-4.49,2.591-6.796,3.769C4.09,27.968,2.23,28.648,0,29.604
	c0.658-3.179,2.092-5.498,3.586-7.813c3.426-5.315,7.305-10.038,12.734-13.64c3.987-2.646,8.139-3.621,12.599-3.709
	c9.573-0.19,19.153-0.104,28.729-0.121c2.938-0.005,5.873,0.019,9.184,0.031c-1.988,7.065-8.016,9.916-12.473,14.566
	c7.072,0.579,13.875-0.08,20.659-0.753c11.489-1.14,22.414-4.381,32.657-9.683c3.795-1.963,7.303-4.496,10.232-7.708
	c0.467-0.512,1.081-0.889,2.256-0.743c-0.592,0.857-1.026,1.903-1.799,2.542c-4.578,3.778-9.083,7.68-14.682,9.971
	c-5.085,2.082-10.02,4.668-15.265,6.189c-6.308,1.83-12.83,3.062-19.337,4.024c-9.138,1.348-18.373,1.737-27.617,1.542
	c-0.311-0.005-0.618-0.215-1.518-0.55c1.721-0.814,3.041-1.453,4.373-2.064c1.514-0.694,3.081-1.283,4.545-2.068
	c1.449-0.775,2.83-1.691,4.183-2.63c1.349-0.936,2.745-1.856,3.901-3.004c1.157-1.15,2.045-2.571,3.196-4.065
	c-0.788-0.27-1.39-0.653-1.991-0.654C47.255,9.236,36.354,9.177,25.455,9.292c-5.371,0.057-9.972,2.277-13.721,6.069
	C9.658,17.462,7.852,19.827,5.18,22.941z"/>
</svg>
