<?xml version="1.0" encoding="utf-8"?>
<!-- Generator: Adobe Illustrator 16.0.0, SVG Export Plug-In . SVG Version: 6.00 Build 0)  -->
<!DOCTYPE svg PUBLIC "-//W3C//DTD SVG 1.1//EN" "http://www.w3.org/Graphics/SVG/1.1/DTD/svg11.dtd">
<svg version="1.1" id="Layer_1" xmlns="http://www.w3.org/2000/svg" xmlns:xlink="http://www.w3.org/1999/xlink" x="0px" y="0px"
	 width="109.391px" height="14.364px" viewBox="0 0 109.391 14.364" enable-background="new 0 0 109.391 14.364"
	 xml:space="preserve">
<path fill-rule="evenodd" clip-rule="evenodd" d="M49.729,0.106c0.866,1.555,1.558,2.797,2.326,4.18c0.925,0,1.893,0,3.003,0
	c1.595-1.189,3.321-2.478,5.252-3.917c0.778,1.239,1.544,2.458,2.614,4.165c3.511,0,7.312-0.064,11.112,0.014
	c7.125,0.144,14.248,0.368,21.372,0.566c4.471,0.125,8.848-1.413,13.982-5.113c-0.218,1.088-0.146,1.903-0.512,2.383
	c-3.301,4.328-7.715,6.68-13.146,7.012c-5.283,0.322-10.572,0.763-15.859,0.761c-5.117-0.003-10.234-0.502-15.271-0.778
	c-1.614,1.151-3.073,2.192-4.78,3.41c-0.89-1.134-1.655-2.111-2.317-2.956c-3.642-1.104-5.869,0.985-8.423,3.317
	c-0.67-1.152-1.273-2.188-2.168-3.725c-0.939,0-2.229,0.002-3.519,0c-9.654-0.017-19.311,0.038-28.963-0.077
	c-5.4-0.063-10.524,0.389-14.425,5.018c-0.136-2.842,1.451-4.553,3.482-5.895c3.957-2.615,8.358-3.973,13.093-4.026
	c7.49-0.085,14.98-0.052,22.472-0.066c1.829-0.004,3.658-0.001,5.661-0.001C46.27,3.053,47.876,1.684,49.729,0.106z"/>
</svg>
