<?xml version="1.0" encoding="utf-8"?>
<!-- Generator: Adobe Illustrator 16.0.0, SVG Export Plug-In . SVG Version: 6.00 Build 0)  -->
<!DOCTYPE svg PUBLIC "-//W3C//DTD SVG 1.1//EN" "http://www.w3.org/Graphics/SVG/1.1/DTD/svg11.dtd">
<svg version="1.1" id="Layer_1" xmlns="http://www.w3.org/2000/svg" xmlns:xlink="http://www.w3.org/1999/xlink" x="0px" y="0px"
	 width="35.103px" height="24.75px" viewBox="0 0 35.103 24.75" enable-background="new 0 0 35.103 24.75" xml:space="preserve">
<path fill-rule="evenodd" clip-rule="evenodd" d="M9.233,14.367c3.682-0.869,7.324-2.021,11.055-2.541
	c5.924-0.826,10.605,1.816,14.43,6.16c0.281,0.32,0.254,0.912,0.385,1.433c-0.393-0.044-0.76,0.028-0.942-0.122
	c-6.169-5.086-12.858-4.436-19.617-1.611c-2.725,1.137-5.205,2.846-7.857,4.174C4.784,22.811,2.78,23.559,0,24.75
	C5.032,13.258,11.666,4.479,22.832,0c2.213,0.414,4.271,0.68,4.061,3.807c-7.241,1.176-13.963,3.375-17.556,10.6
	c-0.209,0.227-0.417,0.453-0.144,0.156C9.101,15.011,9.168,14.689,9.233,14.367z"/>
</svg>
