<?xml version="1.0" encoding="utf-8"?>
<!-- Generator: Adobe Illustrator 16.0.0, SVG Export Plug-In . SVG Version: 6.00 Build 0)  -->
<!DOCTYPE svg PUBLIC "-//W3C//DTD SVG 1.1//EN" "http://www.w3.org/Graphics/SVG/1.1/DTD/svg11.dtd">
<svg version="1.1" id="Layer_1" xmlns="http://www.w3.org/2000/svg" xmlns:xlink="http://www.w3.org/1999/xlink" x="0px" y="0px"
	 width="122.08px" height="30.249px" viewBox="0 0 122.08 30.249" enable-background="new 0 0 122.08 30.249" xml:space="preserve">
<path fill-rule="evenodd" clip-rule="evenodd" d="M26.617,22.668c4.996-3.338,10.908-4.381,16.812-4.712
	c6.739-0.377,13.525-0.013,20.287,0.159c7.26,0.186,14.501,1.061,21.778,0.008c8.235-1.19,16.066-3.483,24.485-8.047
	c-1.836-0.214-2.502-0.369-3.165-0.357c-8.253,0.146-16.505,0.428-24.759,0.456c-18.665,0.061-37.331,0.024-55.996-0.03
	c-5.809-0.016-10.606,2.195-14.615,6.251c-1.503,1.52-2.842,3.202-4.671,5.286c3.055-0.589,5.531-1.066,8.991-1.732
	c-3.401,1.933-5.947,3.419-8.531,4.836C4.677,26.188,3.435,29.35,0,30.249c0.885-4.362,3.404-7.446,5.539-10.729
	c3.214-4.94,7.477-8.794,12.502-11.786c3.365-2.003,7.166-2.483,11.01-2.511c10.898-0.082,21.796-0.15,32.694-0.166
	c15.194-0.021,30.39,0.06,45.583-0.026c2.607-0.015,5.327-0.29,7.78-1.098c2.036-0.669,3.756-2.297,6.221-3.892
	c-0.312-0.128,0.14,0.058,0.751,0.309c-2.367,4.896-6.507,7.703-10.473,10.537c-6.125,4.375-13.052,6.994-20.309,9.054
	c-6.391,1.812-12.775,3.396-19.396,3.639c-4.771,0.175-9.57-0.03-14.344-0.298c-7.096-0.397-14.174-1.163-21.272-1.442
	C33.056,21.711,29.793,22.373,26.617,22.668z"/>
</svg>
