<?xml version="1.0" encoding="utf-8"?>
<!-- Generator: Adobe Illustrator 16.0.0, SVG Export Plug-In . SVG Version: 6.00 Build 0)  -->
<!DOCTYPE svg PUBLIC "-//W3C//DTD SVG 1.1//EN" "http://www.w3.org/Graphics/SVG/1.1/DTD/svg11.dtd">
<svg version="1.1" id="Layer_1" xmlns="http://www.w3.org/2000/svg" xmlns:xlink="http://www.w3.org/1999/xlink" x="0px" y="0px"
	 width="121.989px" height="29.988px" viewBox="0 0 121.989 29.988" enable-background="new 0 0 121.989 29.988"
	 xml:space="preserve">
<path fill-rule="evenodd" clip-rule="evenodd" d="M109.623,9.779c-3.608,0.146-6.146,0.324-8.685,0.338
	C82.12,10.221,63.3,10.408,44.483,10.261c-3.272-0.026-5.079,1.964-7.632,3.518c-0.773-1.163-1.469-2.209-2.077-3.125
	C23.318,8.898,13.597,11.115,7.16,21.737c2.635-0.516,5.201-1.018,8.663-1.694c-3.377,1.872-6.088,3.11-8.494,4.785
	c-2.37,1.648-4.435,3.738-7.329,5.16c0.4-1.137,0.648-2.358,1.225-3.397C5.02,19.75,9.336,13.48,16.175,9.06
	c3.246-2.099,6.625-3.404,10.128-3.548c4.156-0.171,7.875-0.539,10.755-4.38c1.073,1.591,1.866,2.766,2.785,4.126
	c7.934-0.023,15.839-0.056,23.744-0.064c12.546-0.014,25.091,0.009,37.638-0.025c3.626-0.01,7.275,0.068,10.869-0.317
	c3.314-0.355,6.52-1.361,8.096-4.852c0.576,0.2,1.037,0.36,1.8,0.625c-0.765,1.168-1.304,2.365-2.166,3.248
	c-4.167,4.261-8.672,8.104-14.111,10.696c-13.815,6.58-28.292,10.132-43.667,9.221c-5.943-0.353-11.87-1.036-17.793-1.676
	c-5.447-0.589-12.78-0.268-18.262,1.085c5.706-3.837,11.715-4.821,17.738-5.122c6.575-0.331,13.19-0.038,19.784,0.138
	c7.094,0.188,14.162,1.004,21.281,0.129c7.978-0.982,15.495-3.351,22.709-6.795C107.999,11.313,108.38,10.832,109.623,9.779z"/>
</svg>
