<?xml version="1.0" encoding="utf-8"?>
<!-- Generator: Adobe Illustrator 16.0.0, SVG Export Plug-In . SVG Version: 6.00 Build 0)  -->
<!DOCTYPE svg PUBLIC "-//W3C//DTD SVG 1.1//EN" "http://www.w3.org/Graphics/SVG/1.1/DTD/svg11.dtd">
<svg version="1.1" id="Layer_1" xmlns="http://www.w3.org/2000/svg" xmlns:xlink="http://www.w3.org/1999/xlink" x="0px" y="0px"
	 width="120.174px" height="30.648px" viewBox="0 0 120.174 30.648" enable-background="new 0 0 120.174 30.648"
	 xml:space="preserve">
<path fill-rule="evenodd" clip-rule="evenodd" d="M5.991,23.069c6.7-3.768,13.734-5.413,21.364-3.51
	c2.761,0.689,5.271,2.915,7.087,5.806c-0.23,0.064-0.527,0.237-0.623,0.161c-5.989-4.86-12.562-4.559-19.23-1.93
	c-2.898,1.143-5.527,2.953-8.335,4.347C4.339,28.896,2.327,29.651,0,30.648c-0.007-2.065,0.98-3.585,1.796-5.031
	c3.866-6.845,8.592-12.953,15.438-17.134c3.354-2.048,7.053-2.828,10.914-2.841c22.464-0.073,44.927-0.11,67.392-0.161
	c2.478-0.006,4.961,0.083,7.431-0.054c4.096-0.228,8.182-0.604,11.935-0.892c1.902-1.746,3.421-3.141,4.94-4.535
	c-1.265,5.546-4.909,8.565-10.079,9.375c-4.377,0.687-8.855,0.955-13.293,0.993c-21.14,0.186-42.279,0.234-63.42,0.315
	c-1.985,0.008-3.976-0.043-5.957-0.167c-6.799-0.421-12.22,2.343-16.698,7.22C8.842,19.434,7.456,21.286,5.991,23.069z"/>
</svg>
