<?xml version="1.0" encoding="utf-8"?>
<!-- Generator: Adobe Illustrator 16.0.0, SVG Export Plug-In . SVG Version: 6.00 Build 0)  -->
<!DOCTYPE svg PUBLIC "-//W3C//DTD SVG 1.1//EN" "http://www.w3.org/Graphics/SVG/1.1/DTD/svg11.dtd">
<svg version="1.1" id="Layer_1" xmlns="http://www.w3.org/2000/svg" xmlns:xlink="http://www.w3.org/1999/xlink" x="0px" y="0px"
	 width="120.411px" height="30.331px" viewBox="0 0 120.411 30.331" enable-background="new 0 0 120.411 30.331"
	 xml:space="preserve">
<path fill-rule="evenodd" clip-rule="evenodd" d="M35.858,14.26c-0.833-1.508-1.384-2.504-1.901-3.438
	c-12.33-2.718-21.408,1.709-28.095,12.793c1.529-0.9,2.625-1.486,3.66-2.166c7.249-4.754,18.011-4.074,24.004,1.58
	c0.544,0.514,0.847,1.284,1.077,2.146c-4-2.601-8.225-4.333-12.932-3.703c-5.133,0.687-9.989,2.438-14.315,5.366
	C5.146,28.336,2.843,29.51,0,30.331c1.047-4.84,3.899-8.355,6.408-11.984c3.034-4.389,7.047-7.84,11.627-10.595
	c2.771-1.667,5.926-2.487,9.021-2.401c3.572,0.1,6.545-0.529,8.993-3.82c0.929,1.293,1.636,2.279,2.673,3.725
	c12.502-0.061,25.365-0.043,38.227-0.206c12.846-0.163,25.746,1.067,38.535-1.169c0.902-0.877,1.704-1.711,2.564-2.477
	c0.678-0.602,1.43-1.12,2.362-1.403c-1.737,5.143-5.343,8.241-10.597,9.034c-4.221,0.637-8.522,0.965-12.793,1.006
	c-17.506,0.17-35.015,0.225-52.522,0.189c-2.509-0.006-4.541,0.566-6.324,2.271C37.591,13.059,36.884,13.491,35.858,14.26z"/>
</svg>
