<?xml version="1.0" encoding="utf-8"?>
<!-- Generator: Adobe Illustrator 16.0.0, SVG Export Plug-In . SVG Version: 6.00 Build 0)  -->
<!DOCTYPE svg PUBLIC "-//W3C//DTD SVG 1.1//EN" "http://www.w3.org/Graphics/SVG/1.1/DTD/svg11.dtd">
<svg version="1.1" id="Layer_1" xmlns="http://www.w3.org/2000/svg" xmlns:xlink="http://www.w3.org/1999/xlink" x="0px" y="0px"
	 width="121.933px" height="30.646px" viewBox="0 0 121.933 30.646" enable-background="new 0 0 121.933 30.646"
	 xml:space="preserve">
<path fill-rule="evenodd" clip-rule="evenodd" d="M120.956,0c0.187,0.094,0.479,0.243,0.978,0.497
	c-0.617,0.955-1.093,2.011-1.846,2.805c-4.22,4.439-8.853,8.336-14.401,11.089c-14.675,7.279-30.455,9.597-46.555,10.39
	c-6.549,0.322-13.118,0.268-19.732,0.106c5.512-3.145,11.809-4.729,16.4-9.286c1.473-1.461,2.709-3.162,4.292-5.036
	c-1.082-0.227-1.712-0.472-2.343-0.475c-10.068-0.047-20.14,0.074-30.204-0.132c-6.927-0.142-12.597,2.253-17.177,7.342
	c-1.543,1.714-2.938,3.558-4.893,5.94c1.451-0.528,2.334-0.669,3.006-1.122c5.512-3.716,11.537-4.525,17.916-3.191
	c3.457,0.723,5.867,2.598,8.26,6.274c-0.635-0.132-1.068-0.092-1.3-0.288c-5.095-4.366-10.938-4.379-16.843-2.492
	c-3.279,1.047-6.318,2.868-9.428,4.417C4.885,27.933,2.75,29.161,0,30.646c-0.027-2.498,0.962-4,1.767-5.421
	c3.862-6.823,8.551-12.916,15.376-17.127c4.133-2.55,8.716-3.042,13.338-3.098C46.649,4.804,62.82,4.719,78.99,4.681
	c9.742-0.023,19.485,0.192,29.226,0.133c2.434-0.016,4.982-0.345,7.26-1.15C117.349,3.001,118.9,1.422,120.956,0z M108.802,10.75
	c-0.091-0.341-0.182-0.683-0.271-1.023c-14.729,0.18-29.456,0.358-43.826,0.535c-3.655,3.248-6.989,6.212-10.72,9.528
	C73.294,20.404,91.665,19.142,108.802,10.75z"/>
</svg>
