<?xml version="1.0" encoding="utf-8"?>
<!-- Generator: Adobe Illustrator 16.0.0, SVG Export Plug-In . SVG Version: 6.00 Build 0)  -->
<!DOCTYPE svg PUBLIC "-//W3C//DTD SVG 1.1//EN" "http://www.w3.org/Graphics/SVG/1.1/DTD/svg11.dtd">
<svg version="1.1" id="Layer_1" xmlns="http://www.w3.org/2000/svg" xmlns:xlink="http://www.w3.org/1999/xlink" x="0px" y="0px"
	 width="121.908px" height="30.795px" viewBox="0 0 121.908 30.795" enable-background="new 0 0 121.908 30.795"
	 xml:space="preserve">
<path fill-rule="evenodd" clip-rule="evenodd" d="M33.848,10.296c-6.209,0.085-12.229-0.887-17.688,2.532
	c-4.169,2.611-7.087,6.355-9.72,10.576c1.046-0.627,2.061-1.315,3.143-1.873c6.765-3.481,17.375-5.211,24.008,1.532
	c0.531,0.541,0.86,1.281,1.508,2.272c-3.093-1.35-5.61-2.868-8.338-3.537c-3.762-0.923-7.631-0.216-11.186,1.207
	c-3.047,1.221-5.859,3.021-8.799,4.517C4.729,28.564,2.64,29.525,0,30.795c1.041-4.69,3.499-7.788,5.611-11.069
	c3.19-4.957,7.39-8.936,12.475-11.766c2.53-1.41,5.62-2.494,8.46-2.503c3.857-0.014,7.129-0.671,9.969-3.858
	c0.786,1.217,1.385,2.139,2.232,3.447c3.146,0.062,6.589,0.194,10.032,0.189C68.753,5.2,88.728,5.136,108.701,5.07
	c0.821-0.003,1.64-0.163,2.461-0.188c3.964-0.123,7.332-1.43,9.486-4.883c0.498,0.181,0.807,0.292,1.149,0.416
	c0.028,0.264,0.182,0.608,0.071,0.804c-2.426,4.309-6.386,7.075-10.263,9.837c-8.959,6.382-19.319,9.528-29.905,11.47
	c-13.792,2.529-27.793,3.326-42.919,2.559c8.306-3.92,16.682-6.188,21.4-14.481c-1.762-0.093-3.3-0.222-4.84-0.246
	c-2.641-0.04-5.301,0.186-7.918-0.064c-4.007-0.379-7.572,0.201-10.4,3.342c-0.164,0.183-0.614,0.109-1.158,0.187
	C35.268,12.775,34.625,11.655,33.848,10.296z M64.78,10.382c-3.537,3.248-6.826,6.267-10.254,9.413
	c21.147,1.855,48.89-3.624,54.22-9.863C94,10.084,79.262,10.234,64.78,10.382z"/>
</svg>
